<?xml version="1.0" encoding="UTF-8" standalone="no"?>
<svg
   xmlns:osb="http://www.openswatchbook.org/uri/2009/osb"
   xmlns:dc="http://purl.org/dc/elements/1.1/"
   xmlns:cc="http://creativecommons.org/ns#"
   xmlns:rdf="http://www.w3.org/1999/02/22-rdf-syntax-ns#"
   xmlns:svg="http://www.w3.org/2000/svg"
   xmlns="http://www.w3.org/2000/svg"
   xmlns:xlink="http://www.w3.org/1999/xlink"
   xmlns:sodipodi="http://sodipodi.sourceforge.net/DTD/sodipodi-0.dtd"
   xmlns:inkscape="http://www.inkscape.org/namespaces/inkscape"
   width="297mm"
   height="149mm"
   viewBox="0 0 1052.3622 527.95257"
   id="svg2"
   version="1.1"
   inkscape:version="1.0.2 (1.0.2+r75+1)"
   sodipodi:docname="GSM.svg">
  <sodipodi:namedview
     id="base"
     pagecolor="#ffffff"
     bordercolor="#666666"
     borderopacity="1.0"
     inkscape:pageopacity="0.0"
     inkscape:pageshadow="2"
     inkscape:zoom="0.7"
     inkscape:cx="501.56953"
     inkscape:cy="329.53697"
     inkscape:document-units="px"
     inkscape:current-layer="layer1"
     showgrid="false"
     inkscape:window-width="1514"
     inkscape:window-height="1199"
     inkscape:window-x="1517"
     inkscape:window-y="268"
     inkscape:window-maximized="0"
     inkscape:document-rotation="0" />
  <defs
     id="defs4">
    <linearGradient
       osb:paint="solid"
       id="linearGradient4194">
      <stop
         id="stop4196"
         offset="0"
         style="stop-color:#bdb8e6;stop-opacity:1;" />
    </linearGradient>
    <clipPath
       id="clipPath5570"
       clipPathUnits="userSpaceOnUse">
      <path
         inkscape:connector-curvature="0"
         id="path5572"
         d="m 573.98,496.602 5839.41,0 0,2323.79 -5839.41,0 0,-2323.79 z" />
    </clipPath>
    <g
       id="g4209">
      <symbol
         overflow="visible"
         id="symbol1340">
        <path
           style="stroke:none;"
           d=""
           id="path5092" />
      </symbol>
      <symbol
         overflow="visible"
         id="symbol6463">
        <path
           style="stroke:none;"
           d="M 2.078125 -1.9375 C 2.296875 -1.890625 3.109375 -1.734375 3.109375 -1.015625 C 3.109375 -0.515625 2.765625 -0.109375 1.984375 -0.109375 C 1.140625 -0.109375 0.78125 -0.671875 0.59375 -1.53125 C 0.5625 -1.65625 0.5625 -1.6875 0.453125 -1.6875 C 0.328125 -1.6875 0.328125 -1.625 0.328125 -1.453125 L 0.328125 -0.125 C 0.328125 0.046875 0.328125 0.109375 0.4375 0.109375 C 0.484375 0.109375 0.5 0.09375 0.6875 -0.09375 C 0.703125 -0.109375 0.703125 -0.125 0.890625 -0.3125 C 1.328125 0.09375 1.78125 0.109375 1.984375 0.109375 C 3.125 0.109375 3.59375 -0.5625 3.59375 -1.28125 C 3.59375 -1.796875 3.296875 -2.109375 3.171875 -2.21875 C 2.84375 -2.546875 2.453125 -2.625 2.03125 -2.703125 C 1.46875 -2.8125 0.8125 -2.9375 0.8125 -3.515625 C 0.8125 -3.875 1.0625 -4.28125 1.921875 -4.28125 C 3.015625 -4.28125 3.078125 -3.375 3.09375 -3.078125 C 3.09375 -2.984375 3.1875 -2.984375 3.203125 -2.984375 C 3.34375 -2.984375 3.34375 -3.03125 3.34375 -3.21875 L 3.34375 -4.234375 C 3.34375 -4.390625 3.34375 -4.46875 3.234375 -4.46875 C 3.1875 -4.46875 3.15625 -4.46875 3.03125 -4.34375 C 3 -4.3125 2.90625 -4.21875 2.859375 -4.1875 C 2.484375 -4.46875 2.078125 -4.46875 1.921875 -4.46875 C 0.703125 -4.46875 0.328125 -3.796875 0.328125 -3.234375 C 0.328125 -2.890625 0.484375 -2.609375 0.75 -2.390625 C 1.078125 -2.140625 1.359375 -2.078125 2.078125 -1.9375 Z M 2.078125 -1.9375 "
           id="path8112" />
      </symbol>
      <symbol
         overflow="visible"
         id="symbol4231">
        <path
           style="stroke:none;"
           d="M 3.890625 -0.78125 L 3.890625 0.109375 L 5.328125 0 L 5.328125 -0.3125 C 4.640625 -0.3125 4.5625 -0.375 4.5625 -0.875 L 4.5625 -4.40625 L 3.09375 -4.296875 L 3.09375 -3.984375 C 3.78125 -3.984375 3.875 -3.921875 3.875 -3.421875 L 3.875 -1.65625 C 3.875 -0.78125 3.390625 -0.109375 2.65625 -0.109375 C 1.828125 -0.109375 1.78125 -0.578125 1.78125 -1.09375 L 1.78125 -4.40625 L 0.3125 -4.296875 L 0.3125 -3.984375 C 1.09375 -3.984375 1.09375 -3.953125 1.09375 -3.078125 L 1.09375 -1.578125 C 1.09375 -0.796875 1.09375 0.109375 2.609375 0.109375 C 3.171875 0.109375 3.609375 -0.171875 3.890625 -0.78125 Z M 3.890625 -0.78125 "
           id="path2228" />
      </symbol>
      <symbol
         overflow="visible"
         id="symbol2514">
        <path
           style="stroke:none;"
           d="M 1.71875 -3.75 L 1.71875 -4.40625 L 0.28125 -4.296875 L 0.28125 -3.984375 C 0.984375 -3.984375 1.0625 -3.921875 1.0625 -3.484375 L 1.0625 1.171875 C 1.0625 1.625 0.953125 1.625 0.28125 1.625 L 0.28125 1.9375 C 0.625 1.921875 1.140625 1.90625 1.390625 1.90625 C 1.671875 1.90625 2.171875 1.921875 2.515625 1.9375 L 2.515625 1.625 C 1.859375 1.625 1.75 1.625 1.75 1.171875 L 1.75 -0.59375 C 1.796875 -0.421875 2.21875 0.109375 2.96875 0.109375 C 4.15625 0.109375 5.1875 -0.875 5.1875 -2.15625 C 5.1875 -3.421875 4.234375 -4.40625 3.109375 -4.40625 C 2.328125 -4.40625 1.90625 -3.96875 1.71875 -3.75 Z M 1.75 -1.140625 L 1.75 -3.359375 C 2.03125 -3.875 2.515625 -4.15625 3.03125 -4.15625 C 3.765625 -4.15625 4.359375 -3.28125 4.359375 -2.15625 C 4.359375 -0.953125 3.671875 -0.109375 2.9375 -0.109375 C 2.53125 -0.109375 2.15625 -0.3125 1.890625 -0.71875 C 1.75 -0.921875 1.75 -0.9375 1.75 -1.140625 Z M 1.75 -1.140625 "
           id="path6431" />
      </symbol>
      <symbol
         overflow="visible"
         id="symbol4340">
        <path
           style="stroke:none;"
           d="M 3.296875 2.390625 C 3.296875 2.359375 3.296875 2.34375 3.125 2.171875 C 1.890625 0.921875 1.5625 -0.96875 1.5625 -2.5 C 1.5625 -4.234375 1.9375 -5.96875 3.171875 -7.203125 C 3.296875 -7.328125 3.296875 -7.34375 3.296875 -7.375 C 3.296875 -7.453125 3.265625 -7.484375 3.203125 -7.484375 C 3.09375 -7.484375 2.203125 -6.796875 1.609375 -5.53125 C 1.109375 -4.4375 0.984375 -3.328125 0.984375 -2.5 C 0.984375 -1.71875 1.09375 -0.515625 1.640625 0.625 C 2.25 1.84375 3.09375 2.5 3.203125 2.5 C 3.265625 2.5 3.296875 2.46875 3.296875 2.390625 Z M 3.296875 2.390625 "
           id="path4060" />
      </symbol>
      <symbol
         overflow="visible"
         id="symbol4658">
        <path
           style="stroke:none;"
           d="M 2.875 -2.5 C 2.875 -3.265625 2.765625 -4.46875 2.21875 -5.609375 C 1.625 -6.828125 0.765625 -7.484375 0.671875 -7.484375 C 0.609375 -7.484375 0.5625 -7.4375 0.5625 -7.375 C 0.5625 -7.34375 0.5625 -7.328125 0.75 -7.140625 C 1.734375 -6.15625 2.296875 -4.578125 2.296875 -2.5 C 2.296875 -0.78125 1.9375 0.96875 0.703125 2.21875 C 0.5625 2.34375 0.5625 2.359375 0.5625 2.390625 C 0.5625 2.453125 0.609375 2.5 0.671875 2.5 C 0.765625 2.5 1.671875 1.8125 2.25 0.546875 C 2.765625 -0.546875 2.875 -1.65625 2.875 -2.5 Z M 2.875 -2.5 "
           id="path7950" />
      </symbol>
      <symbol
         overflow="visible"
         id="symbol9328">
        <path
           style="stroke:none;"
           d=""
           id="path3764" />
      </symbol>
      <symbol
         overflow="visible"
         id="symbol7697">
        <path
           style="stroke:none;"
           d="M 4.359375 -6.671875 C 4.359375 -6.703125 4.390625 -6.8125 4.390625 -6.8125 C 4.390625 -6.828125 4.390625 -6.921875 4.265625 -6.921875 C 4.171875 -6.921875 4.15625 -6.890625 4.109375 -6.71875 L 3.53125 -4.421875 C 1.953125 -4.359375 0.484375 -3.046875 0.484375 -1.6875 C 0.484375 -0.734375 1.1875 0.046875 2.40625 0.125 C 2.328125 0.421875 2.25 0.75 2.171875 1.0625 C 2.046875 1.53125 1.953125 1.90625 1.953125 1.9375 C 1.953125 2.03125 2.03125 2.046875 2.078125 2.046875 C 2.125 2.046875 2.140625 2.03125 2.171875 2 C 2.1875 1.984375 2.25 1.75 2.28125 1.609375 L 2.65625 0.125 C 4.265625 0.0625 5.71875 -1.28125 5.71875 -2.609375 C 5.71875 -3.40625 5.1875 -4.3125 3.796875 -4.421875 Z M 2.453125 -0.09375 C 1.859375 -0.125 1.140625 -0.484375 1.140625 -1.46875 C 1.140625 -2.671875 2 -4.0625 3.484375 -4.203125 Z M 3.734375 -4.203125 C 4.5 -4.15625 5.0625 -3.703125 5.0625 -2.828125 C 5.0625 -1.640625 4.203125 -0.21875 2.71875 -0.09375 Z M 3.734375 -4.203125 "
           id="path7840" />
      </symbol>
      <symbol
         overflow="visible"
         id="symbol5878">
        <path
           style="stroke:none;"
           d=""
           id="path3680" />
      </symbol>
      <symbol
         overflow="visible"
         id="symbol1472">
        <path
           style="stroke:none;"
           d="M 6.5625 -4.984375 C 6.734375 -4.984375 6.921875 -4.984375 6.921875 -5.1875 C 6.921875 -5.390625 6.734375 -5.390625 6.5625 -5.390625 L 3.890625 -5.390625 C 2.1875 -5.390625 0.828125 -4.09375 0.828125 -2.5 C 0.828125 -0.890625 2.1875 0.40625 3.890625 0.40625 L 6.5625 0.40625 C 6.734375 0.40625 6.921875 0.40625 6.921875 0.203125 C 6.921875 0 6.734375 0 6.5625 0 L 3.90625 0 C 2.359375 0 1.21875 -1.15625 1.21875 -2.5 C 1.21875 -3.828125 2.359375 -4.984375 3.90625 -4.984375 Z M 6.5625 -4.984375 "
           id="path4241" />
      </symbol>
      <symbol
         overflow="visible"
         id="symbol9521">
        <path
           style="stroke:none;"
           d=""
           id="path8683" />
      </symbol>
      <symbol
         overflow="visible"
         id="symbol95">
        <path
           style="stroke:none;"
           d="M 2.671875 -3.125 L 3.03125 -3.125 L 4.53125 -0.8125 C 4.625 -0.65625 4.859375 -0.265625 4.96875 -0.125 C 5.046875 0 5.078125 0 5.296875 0 L 6.671875 0 C 6.859375 0 7.015625 0 7.015625 -0.171875 C 7.015625 -0.265625 6.953125 -0.328125 6.859375 -0.34375 C 6.484375 -0.421875 6 -1.09375 5.765625 -1.40625 C 5.6875 -1.5 5.1875 -2.15625 4.53125 -3.234375 C 5.40625 -3.40625 6.265625 -3.78125 6.265625 -4.96875 C 6.265625 -6.34375 4.8125 -6.828125 3.625 -6.828125 L 0.5 -6.828125 C 0.3125 -6.828125 0.15625 -6.828125 0.15625 -6.65625 C 0.15625 -6.484375 0.34375 -6.484375 0.421875 -6.484375 C 1 -6.484375 1.046875 -6.40625 1.046875 -5.90625 L 1.046875 -0.921875 C 1.046875 -0.421875 1 -0.34375 0.421875 -0.34375 C 0.34375 -0.34375 0.15625 -0.34375 0.15625 -0.171875 C 0.15625 0 0.3125 0 0.5 0 L 3.234375 0 C 3.40625 0 3.5625 0 3.5625 -0.171875 C 3.5625 -0.34375 3.390625 -0.34375 3.28125 -0.34375 C 2.71875 -0.34375 2.671875 -0.421875 2.671875 -0.921875 Z M 4.59375 -3.625 C 4.875 -3.984375 4.90625 -4.515625 4.90625 -4.953125 C 4.90625 -5.4375 4.84375 -5.96875 4.53125 -6.375 C 4.9375 -6.28125 5.921875 -5.96875 5.921875 -4.96875 C 5.921875 -4.3125 5.625 -3.8125 4.59375 -3.625 Z M 2.671875 -5.9375 C 2.671875 -6.15625 2.671875 -6.484375 3.296875 -6.484375 C 4.140625 -6.484375 4.5625 -6.125 4.5625 -4.953125 C 4.5625 -3.671875 4.25 -3.484375 2.671875 -3.484375 Z M 1.3125 -0.34375 C 1.390625 -0.53125 1.390625 -0.8125 1.390625 -0.890625 L 1.390625 -5.9375 C 1.390625 -6.03125 1.390625 -6.296875 1.3125 -6.484375 L 2.453125 -6.484375 C 2.328125 -6.3125 2.328125 -6.125 2.328125 -5.96875 L 2.328125 -0.890625 C 2.328125 -0.796875 2.328125 -0.53125 2.40625 -0.34375 Z M 3.4375 -3.125 C 3.515625 -3.140625 3.546875 -3.15625 3.625 -3.15625 C 3.78125 -3.15625 4 -3.171875 4.140625 -3.1875 C 4.296875 -2.953125 5.375 -1.171875 6.203125 -0.34375 L 5.234375 -0.34375 Z M 3.4375 -3.125 "
           id="path5166" />
      </symbol>
      <symbol
         overflow="visible"
         id="symbol6616">
        <path
           style="stroke:none;"
           d=""
           id="path4442" />
      </symbol>
      <symbol
         overflow="visible"
         id="symbol1275">
        <path
           style="stroke:none;"
           d="M 3.21875 -1.578125 L 5.359375 -1.578125 C 5.453125 -1.578125 5.609375 -1.578125 5.609375 -1.734375 C 5.609375 -1.921875 5.453125 -1.921875 5.359375 -1.921875 L 3.21875 -1.921875 L 3.21875 -4.0625 C 3.21875 -4.140625 3.21875 -4.3125 3.0625 -4.3125 C 2.890625 -4.3125 2.890625 -4.15625 2.890625 -4.0625 L 2.890625 -1.921875 L 0.75 -1.921875 C 0.65625 -1.921875 0.484375 -1.921875 0.484375 -1.75 C 0.484375 -1.578125 0.640625 -1.578125 0.75 -1.578125 L 2.890625 -1.578125 L 2.890625 0.5625 C 2.890625 0.65625 2.890625 0.828125 3.046875 0.828125 C 3.21875 0.828125 3.21875 0.65625 3.21875 0.5625 Z M 3.21875 -1.578125 "
           id="path6819" />
      </symbol>
    </g>
    <g
       id="g2504">
      <symbol
         overflow="visible"
         id="symbol1411">
        <path
           style="stroke:none;"
           d=""
           id="path8502" />
      </symbol>
      <symbol
         overflow="visible"
         id="symbol7355">
        <path
           style="stroke:none;"
           d="M 5.609375 -3.15625 C 5.6875 -3.4375 5.796875 -3.921875 5.796875 -3.984375 C 5.796875 -4.203125 5.640625 -4.421875 5.328125 -4.421875 C 5.171875 -4.421875 4.8125 -4.34375 4.671875 -3.890625 C 4.640625 -3.765625 4.1875 -1.953125 4.109375 -1.625 C 4.046875 -1.390625 3.984375 -1.109375 3.953125 -0.921875 C 3.78125 -0.6875 3.390625 -0.28125 2.875 -0.28125 C 2.296875 -0.28125 2.28125 -0.78125 2.28125 -1 C 2.28125 -1.609375 2.59375 -2.390625 2.875 -3.109375 C 2.96875 -3.375 3 -3.4375 3 -3.609375 C 3 -4.1875 2.421875 -4.5 1.875 -4.5 C 0.8125 -4.5 0.3125 -3.15625 0.3125 -2.953125 C 0.3125 -2.8125 0.46875 -2.8125 0.5625 -2.8125 C 0.671875 -2.8125 0.75 -2.8125 0.78125 -2.9375 C 1.109375 -4.046875 1.65625 -4.140625 1.8125 -4.140625 C 1.890625 -4.140625 1.984375 -4.140625 1.984375 -3.9375 C 1.984375 -3.703125 1.859375 -3.421875 1.828125 -3.3125 C 1.40625 -2.265625 1.21875 -1.703125 1.21875 -1.21875 C 1.21875 -0.078125 2.21875 0.078125 2.796875 0.078125 C 3.09375 0.078125 3.53125 0.046875 4.0625 -0.46875 C 4.390625 0.015625 4.96875 0.078125 5.203125 0.078125 C 5.578125 0.078125 5.859375 -0.125 6.078125 -0.484375 C 6.3125 -0.890625 6.453125 -1.421875 6.453125 -1.46875 C 6.453125 -1.609375 6.296875 -1.609375 6.203125 -1.609375 C 6.09375 -1.609375 6.0625 -1.609375 6.015625 -1.5625 C 5.984375 -1.546875 5.984375 -1.53125 5.9375 -1.28125 C 5.734375 -0.5 5.515625 -0.28125 5.25 -0.28125 C 5.109375 -0.28125 5.03125 -0.375 5.03125 -0.640625 C 5.03125 -0.8125 5.0625 -0.984375 5.15625 -1.375 C 5.234375 -1.65625 5.328125 -2.046875 5.390625 -2.265625 Z M 5.609375 -3.15625 "
           id="path4873" />
      </symbol>
      <symbol
         overflow="visible"
         id="symbol526">
        <path
           style="stroke:none;"
           d=""
           id="path8088" />
      </symbol>
      <symbol
         overflow="visible"
         id="symbol3387">
        <path
           style="stroke:none;"
           d="M 7.203125 -3.328125 C 7.203125 -3.546875 7.140625 -3.65625 7.0625 -3.65625 C 7.015625 -3.65625 6.921875 -3.578125 6.921875 -3.390625 C 6.875 -2.4375 6.21875 -1.890625 5.515625 -1.890625 C 4.890625 -1.890625 4.421875 -2.3125 3.921875 -2.734375 C 3.421875 -3.203125 2.90625 -3.65625 2.21875 -3.65625 C 1.140625 -3.65625 0.546875 -2.5625 0.546875 -1.65625 C 0.546875 -1.328125 0.671875 -1.328125 0.6875 -1.328125 C 0.796875 -1.328125 0.828125 -1.53125 0.828125 -1.5625 C 0.875 -2.65625 1.609375 -3.09375 2.21875 -3.09375 C 2.84375 -3.09375 3.328125 -2.671875 3.8125 -2.25 C 4.328125 -1.78125 4.84375 -1.328125 5.515625 -1.328125 C 6.609375 -1.328125 7.203125 -2.421875 7.203125 -3.328125 Z M 7.203125 -3.328125 "
           id="path2786" />
      </symbol>
      <symbol
         overflow="visible"
         id="symbol4507">
        <path
           style="stroke:none;"
           d="M 4.34375 -1.578125 C 4.078125 -0.671875 3.8125 -0.21875 3.71875 -0.0625 C 3.328125 0.625 3.125 0.640625 2.78125 0.640625 C 2.609375 0.640625 1.90625 0.609375 1.3125 0.203125 C 0.875 0.234375 0.515625 0.578125 0.515625 0.6875 C 0.515625 0.78125 1.203125 1.1875 2.125 1.1875 C 2.84375 1.1875 4.015625 0.8125 4.765625 -0.8125 C 5.03125 -1.375 5.1875 -1.9375 5.21875 -2.0625 C 5.421875 -2.75 5.625 -3.546875 5.625 -3.59375 C 5.625 -3.65625 5.609375 -3.671875 5.515625 -3.671875 C 5.4375 -3.671875 5.265625 -3.625 5.046875 -3.484375 C 4.828125 -3.34375 4.8125 -3.296875 4.75 -3.046875 C 4.640625 -2.703125 4.0625 -1.21875 2.828125 -1.21875 C 1.859375 -1.21875 1.28125 -2.015625 1.28125 -3.140625 C 1.28125 -3.90625 1.59375 -4.9375 2.171875 -5.625 C 2.4375 -5.953125 2.9375 -6.484375 4.0625 -6.484375 C 4.25 -6.484375 4.53125 -6.453125 4.78125 -6.375 C 4.890625 -6.34375 5.140625 -6.265625 5.140625 -5.9375 C 5.140625 -5.609375 4.625 -4.96875 4.578125 -4.90625 C 4.546875 -4.859375 4.515625 -4.828125 4.515625 -4.78125 C 4.515625 -4.71875 4.5625 -4.71875 4.625 -4.71875 C 4.921875 -4.71875 5.25 -4.984375 5.515625 -5.359375 C 5.59375 -5.46875 5.984375 -6.015625 5.984375 -6.359375 C 5.984375 -6.765625 5.6875 -6.875 5.5625 -6.90625 C 5.1875 -7.03125 4.859375 -7.03125 4.71875 -7.03125 C 2.46875 -7.03125 0.4375 -5.046875 0.4375 -2.71875 C 0.4375 -1.703125 0.890625 -0.671875 2.171875 -0.671875 C 2.921875 -0.671875 3.6875 -1.0625 4.34375 -1.578125 Z M 4.34375 -1.578125 "
           id="path1838" />
      </symbol>
      <symbol
         overflow="visible"
         id="symbol9861">
        <path
           style="stroke:none;"
           d="M 1.140625 -2.1875 C 1.265625 -2.234375 1.609375 -2.453125 1.609375 -2.59375 C 1.609375 -2.65625 1.5625 -2.65625 1.5 -2.65625 C 1.15625 -2.65625 0.171875 -2.234375 0.171875 -1.234375 C 0.171875 -0.515625 0.984375 0.21875 2.203125 0.21875 C 3.828125 0.21875 5.71875 -0.90625 5.71875 -2.265625 C 5.71875 -3.203125 4.71875 -3.671875 3.90625 -4.03125 C 3.203125 -4.34375 2.75 -4.75 2.75 -5.328125 C 2.75 -5.53125 2.84375 -5.921875 3.15625 -6.1875 C 3.453125 -6.453125 4 -6.484375 4.140625 -6.484375 C 4.25 -6.484375 4.671875 -6.46875 5.109375 -6.28125 C 5.296875 -6.1875 5.546875 -6.078125 5.546875 -5.640625 C 5.546875 -5.5 5.546875 -5.453125 5.515625 -5.34375 C 5.5 -5.3125 5.5 -5.28125 5.5 -5.25 C 5.5 -5.171875 5.546875 -5.171875 5.59375 -5.171875 C 5.71875 -5.171875 5.96875 -5.28125 6.15625 -5.4375 C 6.296875 -5.546875 6.40625 -5.671875 6.40625 -6.0625 C 6.40625 -6.546875 6.140625 -6.6875 5.875 -6.8125 C 5.40625 -7.03125 4.9375 -7.03125 4.8125 -7.03125 C 3.5 -7.03125 1.90625 -6.03125 1.90625 -4.890625 C 1.90625 -4.0625 2.765625 -3.65625 3.25 -3.453125 C 3.953125 -3.125 4.859375 -2.671875 4.859375 -1.828125 C 4.859375 -1.171875 4.375 -0.328125 2.859375 -0.328125 C 1.84375 -0.328125 1.03125 -0.984375 1.03125 -1.671875 C 1.03125 -1.84375 1.078125 -2.03125 1.140625 -2.1875 Z M 1.140625 -2.1875 "
           id="path3877" />
      </symbol>
      <symbol
         overflow="visible"
         id="symbol8862">
        <path
           style="stroke:none;"
           d="M 3.84375 -5.578125 C 4.109375 -4.28125 4.546875 -2.140625 5.109375 -0.984375 C 5.328125 -0.5625 5.4375 -0.34375 5.546875 -0.34375 C 5.578125 -0.34375 5.609375 -0.34375 5.78125 -0.515625 C 6.546875 -1.25 7.0625 -1.828125 7.75 -2.625 L 9.9375 -5.15625 C 9.796875 -4.3125 9.4375 -2.078125 9.4375 -0.90625 C 9.4375 -0.640625 9.453125 -0.375 9.484375 -0.109375 C 9.484375 0 9.53125 0.296875 9.953125 0.296875 C 10.375 0.296875 11.125 -0.15625 11.125 -0.34375 C 11.125 -0.40625 11.0625 -0.421875 11.03125 -0.421875 C 10.90625 -0.421875 10.703125 -0.328125 10.59375 -0.265625 C 10.359375 -0.296875 10.34375 -0.453125 10.3125 -0.671875 C 10.28125 -1 10.28125 -1.296875 10.28125 -1.328125 C 10.28125 -2.4375 10.71875 -5.46875 11.015625 -6.703125 C 11.03125 -6.765625 11.03125 -6.78125 11.03125 -6.875 C 11.03125 -6.90625 11.03125 -7.015625 10.953125 -7.015625 C 10.921875 -7.015625 10.90625 -7.015625 10.71875 -6.78125 C 9.78125 -5.65625 6.875 -2.15625 5.875 -1.328125 C 5.625 -1.859375 5.453125 -2.234375 5.109375 -3.625 C 4.8125 -4.75 4.640625 -5.578125 4.46875 -6.546875 C 4.453125 -6.6875 4.390625 -6.953125 4.390625 -6.984375 C 4.359375 -7.03125 4.3125 -7.03125 4.28125 -7.03125 C 4.109375 -7.03125 3.6875 -6.8125 3.65625 -6.59375 C 3.53125 -5.765625 3.34375 -4.453125 2.640625 -2.546875 C 1.84375 -0.421875 1.625 -0.421875 1.4375 -0.421875 C 1.3125 -0.421875 0.9375 -0.5 0.71875 -0.703125 C 0.671875 -0.75 0.640625 -0.75 0.625 -0.75 C 0.484375 -0.75 0.265625 -0.296875 0.265625 -0.015625 C 0.265625 0.0625 0.265625 0.1875 0.59375 0.359375 C 0.84375 0.484375 1.078125 0.5 1.125 0.5 C 1.75 0.5 2.328125 -0.921875 2.53125 -1.4375 C 3 -2.5625 3.5625 -4.140625 3.84375 -5.578125 Z M 3.84375 -5.578125 "
           id="path4959" />
      </symbol>
      <symbol
         overflow="visible"
         id="symbol3821">
        <path
           style="stroke:none;"
           d=""
           id="path9921" />
      </symbol>
      <symbol
         overflow="visible"
         id="symbol491">
        <path
           style="stroke:none;"
           d="M 3.296875 2.390625 C 3.296875 2.359375 3.296875 2.34375 3.125 2.171875 C 1.890625 0.921875 1.5625 -0.96875 1.5625 -2.5 C 1.5625 -4.234375 1.9375 -5.96875 3.171875 -7.203125 C 3.296875 -7.328125 3.296875 -7.34375 3.296875 -7.375 C 3.296875 -7.453125 3.265625 -7.484375 3.203125 -7.484375 C 3.09375 -7.484375 2.203125 -6.796875 1.609375 -5.53125 C 1.109375 -4.4375 0.984375 -3.328125 0.984375 -2.5 C 0.984375 -1.71875 1.09375 -0.515625 1.640625 0.625 C 2.25 1.84375 3.09375 2.5 3.203125 2.5 C 3.265625 2.5 3.296875 2.46875 3.296875 2.390625 Z M 3.296875 2.390625 "
           id="path4660" />
      </symbol>
      <symbol
         overflow="visible"
         id="symbol5068">
        <path
           style="stroke:none;"
           d="M 2.875 -2.5 C 2.875 -3.265625 2.765625 -4.46875 2.21875 -5.609375 C 1.625 -6.828125 0.765625 -7.484375 0.671875 -7.484375 C 0.609375 -7.484375 0.5625 -7.4375 0.5625 -7.375 C 0.5625 -7.34375 0.5625 -7.328125 0.75 -7.140625 C 1.734375 -6.15625 2.296875 -4.578125 2.296875 -2.5 C 2.296875 -0.78125 1.9375 0.96875 0.703125 2.21875 C 0.5625 2.34375 0.5625 2.359375 0.5625 2.390625 C 0.5625 2.453125 0.609375 2.5 0.671875 2.5 C 0.765625 2.5 1.671875 1.8125 2.25 0.546875 C 2.765625 -0.546875 2.875 -1.65625 2.875 -2.5 Z M 2.875 -2.5 "
           id="path3631" />
      </symbol>
      <symbol
         overflow="visible"
         id="symbol3848">
        <path
           style="stroke:none;"
           d=""
           id="path5009" />
      </symbol>
      <symbol
         overflow="visible"
         id="symbol2465">
        <path
           style="stroke:none;"
           d="M 5.28125 -3.1875 C 5.28125 -4.140625 5.265625 -6.53125 2.859375 -6.53125 C 0.453125 -6.53125 0.453125 -4.15625 0.453125 -3.1875 C 0.453125 -2.1875 0.453125 0.109375 2.859375 0.109375 C 5.25 0.109375 5.28125 -2.1875 5.28125 -3.1875 Z M 2.859375 -0.25 C 2.5 -0.25 1.9375 -0.46875 1.8125 -1.203125 C 1.71875 -1.71875 1.71875 -2.75 1.71875 -3.296875 C 1.71875 -4.015625 1.71875 -4.671875 1.796875 -5.1875 C 1.921875 -6.078125 2.625 -6.171875 2.859375 -6.171875 C 3.234375 -6.171875 3.640625 -5.984375 3.828125 -5.546875 C 4 -5.171875 4 -4.109375 4 -3.296875 C 4 -2.734375 4 -1.828125 3.921875 -1.3125 C 3.78125 -0.390625 3.15625 -0.25 2.859375 -0.25 Z M 2.859375 -0.25 "
           id="path9999" />
      </symbol>
      <symbol
         overflow="visible"
         id="symbol987">
        <path
           style="stroke:none;"
           d="M 4.71875 -6.703125 C 4.609375 -6.953125 4.5 -6.953125 4.328125 -6.953125 C 4.046875 -6.953125 4 -6.875 3.9375 -6.703125 L 1.46875 -0.703125 C 1.40625 -0.546875 1.375 -0.46875 0.625 -0.46875 L 0.40625 -0.46875 L 0.40625 0 C 0.78125 -0.015625 1.265625 -0.03125 1.578125 -0.03125 C 1.96875 -0.03125 2.515625 -0.03125 2.890625 0 L 2.890625 -0.46875 C 2.875 -0.46875 2 -0.46875 2 -0.59375 C 2 -0.609375 2.03125 -0.703125 2.046875 -0.71875 L 2.546875 -1.921875 L 5.21875 -1.921875 L 5.8125 -0.46875 L 4.859375 -0.46875 L 4.859375 0 C 5.25 -0.03125 6.1875 -0.03125 6.625 -0.03125 C 7.015625 -0.03125 7.890625 -0.03125 8.25 0 L 8.25 -0.46875 L 7.28125 -0.46875 Z M 3.875 -5.15625 L 5.015625 -2.390625 L 2.734375 -2.390625 Z M 3.875 -5.15625 "
           id="path4415" />
      </symbol>
      <symbol
         overflow="visible"
         id="symbol9964">
        <path
           style="stroke:none;"
           d=""
           id="path8460" />
      </symbol>
      <symbol
         overflow="visible"
         id="symbol9707">
        <path
           style="stroke:none;"
           d="M 2.03125 -0.015625 C 2.03125 -0.671875 1.78125 -1.0625 1.390625 -1.0625 C 1.0625 -1.0625 0.859375 -0.8125 0.859375 -0.53125 C 0.859375 -0.265625 1.0625 0 1.390625 0 C 1.5 0 1.640625 -0.046875 1.734375 -0.125 C 1.765625 -0.15625 1.78125 -0.15625 1.78125 -0.15625 C 1.796875 -0.15625 1.796875 -0.15625 1.796875 -0.015625 C 1.796875 0.734375 1.453125 1.328125 1.125 1.65625 C 1.015625 1.765625 1.015625 1.78125 1.015625 1.8125 C 1.015625 1.890625 1.0625 1.921875 1.109375 1.921875 C 1.21875 1.921875 2.03125 1.15625 2.03125 -0.015625 Z M 2.03125 -0.015625 "
           id="path5500" />
      </symbol>
    </g>
  </defs>
  <metadata
     id="metadata7">
    <rdf:RDF>
      <cc:Work
         rdf:about="">
        <dc:format>image/svg+xml</dc:format>
        <dc:type
           rdf:resource="http://purl.org/dc/dcmitype/StillImage" />
        <dc:title></dc:title>
      </cc:Work>
    </rdf:RDF>
  </metadata>
  <g
     inkscape:label="Calque 1"
     inkscape:groupmode="layer"
     id="layer1"
     transform="translate(0,-524.40963)">
    <rect
       style="opacity:0.7;fill:#bdb8e6;fill-opacity:1;fill-rule:nonzero;stroke:#000000;stroke-width:2.41300011;stroke-linecap:butt;stroke-linejoin:miter;stroke-miterlimit:4;stroke-dasharray:none;stroke-dashoffset:0;stroke-opacity:1"
       id="rect4136"
       width="401.58694"
       height="143.01555"
       x="40.635098"
       y="572.14014"
       inkscape:export-filename="/home/mafontai/Dropbox/presentation 27.01.2021/figures/GSM.png"
       inkscape:export-xdpi="288"
       inkscape:export-ydpi="288" />
    <g
       id="g4221"
       transform="matrix(1.608631,0,0,1.3433359,-17.1841,183.59077)"
       inkscape:export-filename="/home/mafontai/Dropbox/presentation 27.01.2021/figures/GSM.png"
       inkscape:export-xdpi="288"
       inkscape:export-ydpi="288">
      <g
         word-spacing="normal"
         letter-spacing="normal"
         font-size-adjust="none"
         font-stretch="normal"
         font-weight="normal"
         font-variant="normal"
         font-style="normal"
         stroke-miterlimit="10.433"
         xml:space="preserve"
         transform="matrix(1.0629921,0,0,-1.0629921,-186.02362,789.27165)"
         id="g4223"
         style="font-style:normal;font-variant:normal;font-weight:normal;font-stretch:normal;letter-spacing:normal;word-spacing:normal;text-anchor:start;fill:none;fill-opacity:1;fill-rule:evenodd;stroke:#000000;stroke-linecap:butt;stroke-linejoin:miter;stroke-miterlimit:10.43299961;stroke-dasharray:none;stroke-dashoffset:0;stroke-opacity:1"><path
           id="path4225"
           d="m 468.65,424.28 0.26,0.31 0.26,0.3 0.25,0.31 0.23,0.31 0.23,0.3 0.23,0.31 0.21,0.31 0.21,0.3 0.2,0.3 0.19,0.29 0.18,0.29 0.17,0.29 0.17,0.28 0.15,0.28 0.15,0.26 0.14,0.26 0.14,0.25 0.12,0.25 0.11,0.23 0.11,0.22 0.1,0.21 0.09,0.2 0.08,0.19 0.08,0.18 0.06,0.16 0.06,0.14 0.05,0.13 0.03,0.12 0.03,0.1 0.03,0.08 0.01,0.07 0,0.04 c 0,0.6 -0.54,0.6 -0.99,0.6 -0.75,0 -0.75,-0.05 -1.2,-1.04 -2.04,-4.59 -5.72,-9.17 -12.25,-11.96 -0.7,-0.3 -0.84,-0.35 -0.84,-0.7 0,-0.09 0,-0.2 0.04,-0.29 0.1,-0.11 0.15,-0.16 1.15,-0.61 l 2.59,0.9 c 2.74,1.6 4.23,2.84 5.23,3.84 l 28.34,0 c 1.5,-1.45 3.19,-2.64 5.24,-3.84 -2.75,-1.59 -4.24,-2.84 -5.24,-3.83 l -28.34,0 c -1.5,1.44 -3.19,2.64 -5.23,3.83 l -2.59,-0.9 c 5.48,-2.28 9.56,-6.52 12.1,-12.3 0.2,-0.45 0.4,-0.5 1,-0.5 0.45,0 0.99,0 0.99,0.6 0,0.4 -1.49,4.04 -4.33,7.27 l 24.46,0 c -2.84,-3.23 -4.33,-6.87 -4.33,-7.27 0,-0.6 0.54,-0.6 0.99,-0.6 0.75,0 0.75,0.05 1.2,1.05 2.04,4.58 5.73,9.16 12.25,11.96 0.7,0.29 0.85,0.35 0.85,0.69 0,0.1 0,0.2 -0.05,0.3 -0.1,0.1 -0.15,0.15 -1.14,0.6 -5.49,2.29 -9.57,6.53 -12.11,12.3 -0.2,0.45 -0.4,0.5 -1,0.5 -0.45,0 -0.99,0 -0.99,-0.6 0,-0.39 1.49,-4.03 4.33,-7.27 z"
           inkscape:connector-curvature="0"
           style="fill:#000000;stroke-width:0" /></g>
    </g>
    <rect
       style="opacity:0.7;fill:#bdb8e6;fill-opacity:1;fill-rule:nonzero;stroke:#000000;stroke-width:4.01510429;stroke-linecap:butt;stroke-linejoin:miter;stroke-miterlimit:4;stroke-dasharray:none;stroke-dashoffset:0;stroke-opacity:1"
       id="rect4136-3"
       width="459.98483"
       height="345.69916"
       x="568.57898"
       y="537.94122"
       inkscape:export-filename="/home/mafontai/Dropbox/presentation 27.01.2021/figures/GSM.png"
       inkscape:export-xdpi="288"
       inkscape:export-ydpi="288" />
    <g
       transform="translate(313.10498,293.34368)"
       id="g4308"
       inkscape:export-filename="/home/mafontai/Dropbox/presentation 27.01.2021/figures/GSM.png"
       inkscape:export-xdpi="288"
       inkscape:export-ydpi="288">
      <g
         style="font-style:normal;font-variant:normal;font-weight:normal;font-stretch:normal;letter-spacing:normal;word-spacing:normal;text-anchor:start;fill:none;fill-opacity:1;fill-rule:evenodd;stroke:#000000;stroke-linecap:butt;stroke-linejoin:miter;stroke-miterlimit:10.433;stroke-dasharray:none;stroke-dashoffset:0;stroke-opacity:1"
         id="g4310"
         transform="matrix(1.0629921,0,0,-1.0629921,-186.02362,789.27165)"
         xml:space="preserve"
         stroke-miterlimit="10.433"
         font-style="normal"
         font-variant="normal"
         font-weight="normal"
         font-stretch="normal"
         font-size-adjust="none"
         letter-spacing="normal"
         word-spacing="normal"><g
           id="g4412"
           transform="matrix(0.5076707,0,0,-0.54354255,525.55761,659.62522)"
           style="fill:#ff0000;stroke:#ff0000;stroke-width:0.716345;stroke-miterlimit:10.433;stroke-dasharray:none;stroke-opacity:1"><g
             word-spacing="normal"
             letter-spacing="normal"
             font-size-adjust="none"
             font-stretch="normal"
             font-weight="normal"
             font-variant="normal"
             font-style="normal"
             stroke-miterlimit="10.433"
             xml:space="preserve"
             transform="matrix(1.0629921,0,0,-1.0629921,-186.02362,789.27165)"
             id="g4414"
             style="font-style:normal;font-variant:normal;font-weight:normal;font-stretch:normal;letter-spacing:normal;word-spacing:normal;text-anchor:start;fill:#ff0000;fill-opacity:1;fill-rule:evenodd;stroke:#ff0000;stroke-width:0.673895;stroke-linecap:butt;stroke-linejoin:miter;stroke-miterlimit:10.433;stroke-dasharray:none;stroke-dashoffset:0;stroke-opacity:1"><path
               id="path4416"
               d="m 464.82,428.02 -6.98,-0.55 v -1.54 c 3.24,0 3.69,-0.31 3.69,-2.75 v -13.39 c 0,-2.25 -0.55,-2.25 -3.89,-2.25 V 406 h 10.66 v 1.54 c -3.28,0 -3.48,0.25 -3.48,2.19 z"
               inkscape:connector-curvature="0"
               style="fill:#ff0000;stroke:#ff0000;stroke-width:0.673895;stroke-miterlimit:10.433;stroke-dasharray:none;stroke-opacity:1" /><path
               id="path4418"
               d="m 465.02,436.68 -0.01,0.15 -0.01,0.15 -0.02,0.14 -0.02,0.13 -0.03,0.14 -0.04,0.13 -0.04,0.13 -0.05,0.12 -0.06,0.12 -0.06,0.11 -0.06,0.11 -0.07,0.11 -0.08,0.1 -0.08,0.1 -0.08,0.09 -0.09,0.09 -0.09,0.09 -0.1,0.07 -0.1,0.08 -0.11,0.07 -0.1,0.06 -0.11,0.06 -0.12,0.06 -0.11,0.05 -0.12,0.04 -0.12,0.04 -0.13,0.03 -0.12,0.03 -0.13,0.02 -0.13,0.01 -0.12,0.01 h -0.13 c -1.55,0 -2.65,-1.34 -2.65,-2.64 0,-1.34 1.1,-2.64 2.65,-2.64 1.39,0 2.64,1.05 2.64,2.64 z"
               inkscape:connector-curvature="0"
               style="fill:#ff0000;stroke:#ff0000;stroke-width:0.673895;stroke-miterlimit:10.433;stroke-dasharray:none;stroke-opacity:1" /><path
               id="path4420"
               d="m 474.48,423.14 v -13.35 c 0,-2.25 -0.55,-2.25 -3.89,-2.25 V 406 h 11.21 v 1.54 c -3.34,0 -3.88,0 -3.88,2.25 v 9.16 c 0,5.18 3.53,7.97 6.72,7.97 3.14,0 3.69,-2.69 3.69,-5.53 v -11.6 c 0,-2.25 -0.55,-2.25 -3.89,-2.25 V 406 h 11.21 v 1.54 c -3.34,0 -3.88,0 -3.88,2.25 v 9.16 c 0,5.18 3.53,7.97 6.72,7.97 3.14,0 3.69,-2.69 3.69,-5.53 v -11.6 c 0,-2.25 -0.55,-2.25 -3.89,-2.25 V 406 h 11.21 v 1.54 c -2.59,0 -3.84,0 -3.89,1.5 v 9.51 c 0,4.29 0,5.83 -1.54,7.63 -0.7,0.84 -2.34,1.84 -5.23,1.84 -4.19,0 -6.38,-2.99 -7.23,-4.88 -0.69,4.33 -4.38,4.88 -6.62,4.88 -3.63,0 -5.98,-2.14 -7.37,-5.23 v 5.23 l -7.03,-0.55 v -1.54 c 3.49,0 3.89,-0.35 3.89,-2.79 z"
               inkscape:connector-curvature="0"
               style="fill:#ff0000;stroke:#ff0000;stroke-width:0.673895;stroke-miterlimit:10.433;stroke-dasharray:none;stroke-opacity:1" /><path
               id="path4422"
               d="m 519.57,424.73 v 3.29 l -7.17,-0.55 v -1.54 c 3.53,0 3.88,-0.31 3.88,-2.5 v -23.31 c 0,-2.24 -0.55,-2.24 -3.88,-2.24 v -1.54 h 11.2 v 1.54 c -3.33,0 -3.88,0 -3.88,2.24 v 8.37 0.45 l 0.69,0.65 c -0.69,1.04 -0.69,1.09 -0.69,2.09 v 0 11.11 c 1.44,2.54 3.88,3.98 6.43,3.98 3.63,0 6.67,-4.38 6.67,-10.01 0,-6.03 -3.49,-10.21 -7.17,-10.21 -2,0 -3.89,0.99 -5.24,3.04 l -0.69,-0.65 c 0.25,-0.8 2.34,-3.49 6.12,-3.49 5.93,0 11.11,4.88 11.11,11.31 0,6.33 -4.83,11.26 -10.41,11.26 -3.88,0 -5.98,-2.2 -6.97,-3.29 z"
               inkscape:connector-curvature="0"
               style="fill:#ff0000;stroke:#ff0000;stroke-width:0.673895;stroke-miterlimit:10.433;stroke-dasharray:none;stroke-opacity:1" /><path
               id="path4424"
               d="m 558.48,409.93 v -4.48 l 7.17,0.55 v 1.54 c -3.49,0 -3.88,0.35 -3.88,2.79 v 17.69 l -7.33,-0.55 v -1.54 c 3.49,0 3.89,-0.35 3.89,-2.79 v -8.87 c 0,-4.34 -2.39,-7.72 -6.03,-7.72 -4.18,0 -4.38,2.34 -4.38,4.93 v 16.54 l -7.33,-0.55 v -1.54 c 3.89,0 3.89,-0.15 3.89,-4.59 v -7.47 c 0,-3.89 0,-8.42 7.57,-8.42 2.79,0 4.98,1.4 6.43,4.48 z"
               inkscape:connector-curvature="0"
               style="fill:#ff0000;stroke:#ff0000;stroke-width:0.673895;stroke-miterlimit:10.433;stroke-dasharray:none;stroke-opacity:1" /><path
               id="path4426"
               d="m 574.82,440.57 -7.17,-0.55 v -1.54 c 3.48,0 3.88,-0.35 3.88,-2.79 v -25.9 c 0,-2.25 -0.55,-2.25 -3.88,-2.25 V 406 h 11.05 v 1.54 c -3.34,0 -3.88,0 -3.88,2.25 z"
               inkscape:connector-curvature="0"
               style="fill:#ff0000;stroke:#ff0000;stroke-width:0.673895;stroke-miterlimit:10.433;stroke-dasharray:none;stroke-opacity:1" /><path
               id="path4428"
               d="m 590.36,415.66 0.11,-0.02 0.13,-0.02 0.14,-0.03 0.16,-0.03 0.17,-0.04 0.18,-0.05 0.18,-0.05 0.2,-0.05 0.21,-0.06 0.21,-0.07 0.21,-0.08 0.22,-0.09 0.22,-0.09 0.22,-0.1 0.22,-0.12 0.22,-0.12 0.22,-0.13 0.21,-0.14 0.2,-0.15 0.2,-0.16 0.19,-0.18 0.18,-0.19 0.17,-0.2 0.16,-0.21 0.14,-0.22 0.07,-0.12 0.06,-0.12 0.06,-0.13 0.05,-0.12 0.05,-0.13 0.05,-0.14 0.04,-0.14 0.03,-0.14 0.03,-0.15 0.03,-0.15 0.02,-0.15 0.01,-0.16 0.01,-0.16 v -0.17 c 0,-2.54 -1.74,-4.53 -5.63,-4.53 -4.18,0 -5.98,2.84 -6.92,7.07 -0.15,0.65 -0.2,0.85 -0.7,0.85 -0.64,0 -0.64,-0.35 -0.64,-1.25 v -6.57 c 0,-0.85 0,-1.2 0.54,-1.2 0.25,0 0.3,0.05 1.25,1 0.09,0.1 0.09,0.2 0.99,1.14 2.19,-2.09 4.44,-2.14 5.48,-2.14 5.73,0 8.02,3.34 8.02,6.93 0,2.64 -1.49,4.13 -2.09,4.73 -1.64,1.59 -3.59,1.99 -5.68,2.39 -2.79,0.55 -6.13,1.2 -6.13,4.09 0,1.74 1.3,3.78 5.58,3.78 5.48,0 5.73,-4.48 5.83,-6.03 0.05,-0.45 0.5,-0.45 0.6,-0.45 0.65,0 0.65,0.25 0.65,1.2 v 5.03 c 0,0.85 0,1.2 -0.55,1.2 -0.25,0 -0.35,0 -0.99,-0.6 -0.16,-0.2 -0.65,-0.65 -0.85,-0.8 -1.9,1.4 -3.94,1.4 -4.69,1.4 -6.08,0 -7.96,-3.34 -7.96,-6.13 0,-1.74 0.79,-3.14 2.13,-4.23 1.6,-1.3 2.99,-1.6 6.58,-2.3 z"
               inkscape:connector-curvature="0"
               style="fill:#ff0000;stroke:#ff0000;stroke-width:0.673895;stroke-miterlimit:10.433;stroke-dasharray:none;stroke-opacity:1" /><path
               id="path4430"
               d="m 605.53,417.51 0.05,1.04 c 0.3,7.43 4.48,8.67 6.18,8.67 5.13,0 5.63,-6.72 5.63,-8.67 h -11.81 l -0.05,-1.04 h 13.9 c 1.09,0 1.24,0 1.24,1.04 0,4.93 -2.69,9.77 -8.91,9.77 -5.78,0 -10.36,-5.14 -10.36,-11.36 0,-6.67 5.22,-11.51 10.95,-11.51 6.08,0 8.32,5.53 8.32,6.48 0,0.5 -0.4,0.6 -0.65,0.6 -0.44,0 -0.54,-0.3 -0.64,-0.7 -1.75,-5.13 -6.23,-5.13 -6.73,-5.13 -2.49,0 -4.48,1.49 -5.63,3.34 -1.49,2.39 -1.49,5.67 -1.49,7.47 z"
               inkscape:connector-curvature="0"
               style="fill:#ff0000;stroke:#ff0000;stroke-width:0.673895;stroke-miterlimit:10.433;stroke-dasharray:none;stroke-opacity:1" /></g></g></g>
    </g>
    <rect
       style="opacity:1;fill:#bdb8e6;fill-opacity:1;fill-rule:nonzero;stroke:#000000;stroke-width:2.78140354;stroke-linecap:butt;stroke-linejoin:miter;stroke-miterlimit:4;stroke-dasharray:none;stroke-dashoffset:0;stroke-opacity:1"
       id="rect4136-3-6"
       width="683.5799"
       height="317.48972"
       x="319.87912"
       y="728.0459"
       inkscape:export-filename="/home/mafontai/Dropbox/presentation 27.01.2021/figures/GSM.png"
       inkscape:export-xdpi="288"
       inkscape:export-ydpi="288" />
    <g
       transform="matrix(0.97794662,0,0,0.64367606,-37.074912,383.19579)"
       id="g4294"
       inkscape:export-filename="/home/mafontai/Dropbox/presentation 27.01.2021/figures/GSM.png"
       inkscape:export-xdpi="288"
       inkscape:export-ydpi="288">
      <g
         id="g5566"
         transform="matrix(0.10314761,0,0,-0.10314761,364.5294,978.75633)">
        <g
           id="g5568"
           clip-path="url(#clipPath5570)">
          <path
             d="m 33.0117,503.629 679.2893,0.633 21.918,19.566 21.91,93.633 21.922,248.359 21.91,372.66 21.918,396.83 21.91,353.21 21.91,281.64 21.922,205.78 21.91,137.26 21.918,80.63 21.91,36.21 21.911,2.58 21.921,-22.07 21.909,-39.57 21.92,-51.72 21.91,-59.65 43.83,-131.64 65.74,-202.77 43.83,-128.25 43.83,-119.29 43.82,-109.46 43.83,-99.68 43.83,-90.43 43.83,-81.88 43.83,-74.14 43.82,-67.19 43.83,-60.97 43.83,-55.39 43.83,-50.43 43.83,-46.02 43.83,-42.07 43.82,-38.55 43.83,-35.4 43.83,-32.57 43.83,-30 43.79,-27.74 43.83,-25.66 43.82,-23.791 65.75,-32.578 65.74,-29.262 65.74,-26.398 65.74,-23.91 65.74,-21.719 65.75,-19.762 87.65,-23.75 87.66,-21.18 87.66,-18.902 109.57,-20.976 109.57,-18.473 109.57,-16.367 131.48,-17.274 131.48,-15.117 153.4,-15.351 175.28,-15.11 197.22,-14.461 219.14,-13.551 241.06,-12.539 262.97,-11.41 306.79,-10.969 350.59,-10.281 416.37,-9.758 482.11,-8.953 449.96,-6.636"
             style="fill:none;stroke:#005200;stroke-width:31.65348816;stroke-linecap:square;stroke-linejoin:round;stroke-miterlimit:100;stroke-dasharray:none;stroke-opacity:1"
             id="path5574"
             inkscape:connector-curvature="0" />
        </g>
      </g>
      <path
         d="m 423.73406,687.83999 602.32204,0"
         style="fill:none;stroke:#000000;stroke-width:1.03147602;stroke-linecap:square;stroke-linejoin:miter;stroke-miterlimit:100000;stroke-dasharray:none;stroke-opacity:1"
         id="path5588"
         inkscape:connector-curvature="0" />
      <path
         d="m 1026.0561,927.53307 0,-239.69308"
         style="fill:none;stroke:#000000;stroke-width:1.03147602;stroke-linecap:square;stroke-linejoin:miter;stroke-miterlimit:100000;stroke-dasharray:none;stroke-opacity:1"
         id="path5590"
         inkscape:connector-curvature="0" />
      <path
         d="m 423.73406,927.53307 602.32204,0"
         style="fill:none;stroke:#000000;stroke-width:1.03147602;stroke-linecap:square;stroke-linejoin:miter;stroke-miterlimit:100000;stroke-dasharray:none;stroke-opacity:1"
         id="path5592"
         inkscape:connector-curvature="0" />
      <path
         d="m 423.73406,927.53307 0,-239.69308"
         style="fill:none;stroke:#000000;stroke-width:1.03147602;stroke-linecap:square;stroke-linejoin:miter;stroke-miterlimit:100000;stroke-dasharray:none;stroke-opacity:1"
         id="path5594"
         inkscape:connector-curvature="0" />
      <path
         d="m 433.70236,927.53307 0,-4.1258"
         style="fill:none;stroke:#000000;stroke-width:0.51573801;stroke-linecap:butt;stroke-linejoin:round;stroke-miterlimit:100000;stroke-dasharray:none;stroke-opacity:1"
         id="path5596"
         inkscape:connector-curvature="0" />
      <path
         d="m 433.70236,687.83999 0,4.12591"
         style="fill:none;stroke:#000000;stroke-width:0.51573801;stroke-linecap:butt;stroke-linejoin:round;stroke-miterlimit:100000;stroke-dasharray:none;stroke-opacity:1"
         id="path5598"
         inkscape:connector-curvature="0" />
      <path
         d="m 433.69914,932.84337 c -0.62941,0 -1.10037,0.3106 -1.41826,0.9315 -0.31471,0.6156 -0.47552,1.5472 -0.47552,2.7881 0,1.2367 0.16081,2.163 0.47552,2.7838 0.31789,0.6168 0.78885,0.9264 1.41826,0.9264 0.63221,0 1.1076,-0.3096 1.42231,-0.9264 0.31791,-0.6208 0.47458,-1.5471 0.47458,-2.7838 0,-1.2409 -0.15662,-2.1725 -0.47458,-2.7881 -0.31471,-0.6209 -0.7901,-0.9315 -1.42231,-0.9315 m 0,-0.9662 c 1.01097,0 1.78457,0.4021 2.31681,1.2001 0.53502,0.8019 0.80135,1.9623 0.80135,3.4857 0,1.5182 -0.26633,2.6787 -0.80135,3.4768 -0.53224,0.8018 -1.30584,1.2008 -2.31681,1.2008 -1.01176,0 -1.78538,-0.399 -2.3176,-1.2008 -0.53546,-0.7981 -0.80137,-1.9586 -0.80137,-3.4768 0,-1.5234 0.26591,-2.6838 0.80137,-3.4857 0.53222,-0.798 1.30584,-1.2001 2.3176,-1.2001"
         style="fill:#000000;fill-opacity:1;fill-rule:nonzero;stroke:none"
         id="path5600"
         inkscape:connector-curvature="0" />
      <path
         d="m 543.3172,927.53307 0,-4.1258"
         style="fill:none;stroke:#000000;stroke-width:0.51573801;stroke-linecap:butt;stroke-linejoin:round;stroke-miterlimit:100000;stroke-dasharray:none;stroke-opacity:1"
         id="path5602"
         inkscape:connector-curvature="0" />
      <path
         d="m 543.3172,687.83999 0,4.12591"
         style="fill:none;stroke:#000000;stroke-width:0.51573801;stroke-linecap:butt;stroke-linejoin:round;stroke-miterlimit:100000;stroke-dasharray:none;stroke-opacity:1"
         id="path5604"
         inkscape:connector-curvature="0" />
      <path
         d="m 541.75349,940.03577 4.25893,0 0,1.0275 -5.72466,0 0,-1.0275 c 0.46313,-0.4794 1.0913,-1.1201 1.89273,-1.93 0.79838,-0.8054 1.30173,-1.3293 1.50699,-1.5637 0.39094,-0.4392 0.66531,-0.8095 0.81798,-1.1116 0.15786,-0.3067 0.23415,-0.6043 0.23415,-0.8986 0,-0.4793 -0.16918,-0.8707 -0.50338,-1.1728 -0.3383,-0.3023 -0.77359,-0.4549 -1.31821,-0.4549 -0.38269,0 -0.78497,0.068 -1.20889,0.2014 -0.42705,0.1329 -0.8778,0.3341 -1.36156,0.6043 l 0,-1.2328 c 0.49202,-0.1978 0.94689,-0.3465 1.37393,-0.4478 0.43115,-0.099 0.82207,-0.1522 1.17692,-0.1522 0.93452,0 1.68027,0.2328 2.23623,0.7043 0.55596,0.4642 0.82932,1.0883 0.82932,1.87 0,0.3702 -0.0681,0.7252 -0.20528,1.0551 -0.14136,0.3312 -0.39093,0.7252 -0.76123,1.1769 -0.0971,0.1169 -0.41877,0.455 -0.95927,1.011 -0.53945,0.5601 -1.30069,1.3376 -2.28472,2.3413"
         style="fill:#000000;fill-opacity:1;fill-rule:nonzero;stroke:none"
         id="path5606"
         inkscape:connector-curvature="0" />
      <path
         d="m 652.93214,927.53307 0,-4.1258"
         style="fill:none;stroke:#000000;stroke-width:0.51573801;stroke-linecap:butt;stroke-linejoin:round;stroke-miterlimit:100000;stroke-dasharray:none;stroke-opacity:1"
         id="path5608"
         inkscape:connector-curvature="0" />
      <path
         d="m 652.93214,687.83999 0,4.12591"
         style="fill:none;stroke:#000000;stroke-width:0.51573801;stroke-linecap:butt;stroke-linejoin:round;stroke-miterlimit:100000;stroke-dasharray:none;stroke-opacity:1"
         id="path5610"
         inkscape:connector-curvature="0" />
      <path
         d="m 653.67274,933.10557 -3.08205,4.8149 3.08205,0 0,-4.8149 z m -0.32181,-1.0637 1.53484,0 0,5.8786 1.28934,0 0,1.0157 -1.28934,0 0,2.1271 -1.21303,0 0,-2.1271 -4.07329,0 0,-1.1769 3.75148,-5.7174 z"
         style="fill:#000000;fill-opacity:1;fill-rule:nonzero;stroke:none"
         id="path5612"
         inkscape:connector-curvature="0" />
      <path
         d="m 762.54606,927.53307 0,-4.1258"
         style="fill:none;stroke:#000000;stroke-width:0.51573801;stroke-linecap:butt;stroke-linejoin:round;stroke-miterlimit:100000;stroke-dasharray:none;stroke-opacity:1"
         id="path5614"
         inkscape:connector-curvature="0" />
      <path
         d="m 762.54606,687.83999 0,4.12591"
         style="fill:none;stroke:#000000;stroke-width:0.51573801;stroke-linecap:butt;stroke-linejoin:round;stroke-miterlimit:100000;stroke-dasharray:none;stroke-opacity:1"
         id="path5616"
         inkscape:connector-curvature="0" />
      <path
         d="m 762.69562,936.06667 c -0.54875,0 -0.98402,0.1897 -1.30585,0.5645 -0.31871,0.3709 -0.47962,0.8868 -0.47962,1.5388 0,0.6487 0.16098,1.1604 0.47962,1.5399 0.32183,0.3743 0.75713,0.5633 1.30585,0.5633 0.54773,0 0.983,-0.189 1.30071,-0.5633 0.31872,-0.3795 0.47964,-0.8912 0.47964,-1.5399 0,-0.652 -0.16097,-1.1679 -0.47964,-1.5388 -0.31771,-0.3748 -0.75298,-0.5645 -1.30071,-0.5645 m 2.42087,-3.8277 0,1.112 c -0.30632,-0.1448 -0.61579,-0.2539 -0.92625,-0.33 -0.31048,-0.076 -0.62096,-0.1168 -0.92731,-0.1168 -0.80557,0 -1.42137,0.2736 -1.84942,0.818 -0.42289,0.5438 -0.66426,1.3658 -0.72512,2.4653 0.23826,-0.3497 0.53637,-0.62 0.8953,-0.8058 0.35793,-0.1885 0.75299,-0.2812 1.18416,-0.2812 0.90664,0 1.61941,0.2732 2.14752,0.8261 0.52812,0.5474 0.7901,1.2966 0.7901,2.2434 0,0.9275 -0.27437,1.6688 -0.82209,2.2321 -0.54873,0.56 -1.27797,0.8385 -2.18776,0.8385 -1.04384,0 -1.84221,-0.3989 -2.39404,-1.2008 -0.55184,-0.7981 -0.82932,-1.9586 -0.82932,-3.4767 0,-1.4268 0.33834,-2.5634 1.01498,-3.4132 0.67666,-0.8461 1.58744,-1.2727 2.72826,-1.2727 0.30531,0 0.61578,0.032 0.92626,0.093 0.3105,0.06 0.63642,0.1488 0.97473,0.2692"
         style="fill:#000000;fill-opacity:1;fill-rule:nonzero;stroke:none"
         id="path5618"
         inkscape:connector-curvature="0" />
      <path
         d="m 872.16102,927.53307 0,-4.1258"
         style="fill:none;stroke:#000000;stroke-width:0.51573801;stroke-linecap:butt;stroke-linejoin:round;stroke-miterlimit:100000;stroke-dasharray:none;stroke-opacity:1"
         id="path5620"
         inkscape:connector-curvature="0" />
      <path
         d="m 872.16102,687.83999 0,4.12591"
         style="fill:none;stroke:#000000;stroke-width:0.51573801;stroke-linecap:butt;stroke-linejoin:round;stroke-miterlimit:100000;stroke-dasharray:none;stroke-opacity:1"
         id="path5622"
         inkscape:connector-curvature="0" />
      <path
         d="m 872.1569,936.78057 c -0.58074,0 -1.03562,0.1527 -1.36982,0.463 -0.33108,0.3107 -0.49612,0.7377 -0.49612,1.2812 0,0.5435 0.16498,0.9716 0.49612,1.281 0.3342,0.3106 0.78908,0.4674 1.36982,0.4674 0.57967,0 1.03972,-0.1567 1.36981,-0.4674 0.3383,-0.3135 0.50335,-0.7407 0.50335,-1.281 0,-0.5435 -0.165,-0.9705 -0.49924,-1.2812 -0.33112,-0.3103 -0.7901,-0.463 -1.37392,-0.463 m -1.22128,-0.5196 c -0.52399,-0.1289 -0.93038,-0.3748 -1.22435,-0.7294 -0.29088,-0.3631 -0.43529,-0.7986 -0.43529,-1.3144 0,-0.7208 0.25788,-1.2933 0.76949,-1.7119 0.51573,-0.4191 1.21713,-0.6281 2.11143,-0.6281 0.89842,0 1.60292,0.209 2.11557,0.6281 0.51159,0.4186 0.76949,0.9911 0.76949,1.7119 0,0.5158 -0.14951,0.9513 -0.43943,1.3144 -0.28984,0.3546 -0.69729,0.6003 -1.21714,0.7294 0.58794,0.137 1.04385,0.402 1.37393,0.8053 0.32697,0.3992 0.49201,0.8828 0.49201,1.4585 0,0.8747 -0.26613,1.5474 -0.80248,2.0143 -0.53122,0.4675 -1.29658,0.7015 -2.29195,0.7015 -0.99536,0 -1.75661,-0.234 -2.29295,-0.7015 -0.53536,-0.4669 -0.8015,-1.1396 -0.8015,-2.0143 0,-0.5757 0.165,-1.0593 0.49513,-1.4585 0.3311,-0.4033 0.7901,-0.6685 1.37804,-0.8053 m -0.44662,-1.93 c 0,0.4668 0.14855,0.8331 0.43839,1.0954 0.29087,0.262 0.70139,0.3909 1.22951,0.3909 0.52399,0 0.93452,-0.1289 1.22849,-0.3909 0.29809,-0.2623 0.44764,-0.6286 0.44764,-1.0954 0,-0.4676 -0.1495,-0.8305 -0.44764,-1.0925 -0.29397,-0.2618 -0.7045,-0.3951 -1.22849,-0.3951 -0.52812,0 -0.93864,0.1332 -1.22951,0.3951 -0.28984,0.262 -0.43839,0.6249 -0.43839,1.0925"
         style="fill:#000000;fill-opacity:1;fill-rule:nonzero;stroke:none"
         id="path5624"
         inkscape:connector-curvature="0" />
      <path
         d="m 981.77498,927.53307 0,-4.1258"
         style="fill:none;stroke:#000000;stroke-width:0.51573801;stroke-linecap:butt;stroke-linejoin:round;stroke-miterlimit:100000;stroke-dasharray:none;stroke-opacity:1"
         id="path5626"
         inkscape:connector-curvature="0" />
      <path
         d="m 981.77498,687.83999 0,4.12591"
         style="fill:none;stroke:#000000;stroke-width:0.51573801;stroke-linecap:butt;stroke-linejoin:round;stroke-miterlimit:100000;stroke-dasharray:none;stroke-opacity:1"
         id="path5628"
         inkscape:connector-curvature="0" />
      <path
         d="m 975.43763,940.03577 1.99383,0 0,-6.8818 -2.17129,0.4351 0,-1.112 2.15989,-0.4352 1.22023,0 0,7.9939 1.99069,0 0,1.0275 -5.19335,0 0,-1.0275 z"
         style="fill:#000000;fill-opacity:1;fill-rule:nonzero;stroke:none"
         id="path5630"
         inkscape:connector-curvature="0" />
      <path
         d="m 985.70796,932.84337 c -0.62504,0 -1.10056,0.3106 -1.4141,0.9315 -0.31884,0.6156 -0.47553,1.5472 -0.47553,2.7881 0,1.2367 0.15683,2.163 0.47553,2.7838 0.31354,0.6168 0.78906,0.9264 1.4141,0.9264 0.63643,0 1.10774,-0.3096 1.4255,-0.9264 0.31462,-0.6208 0.47552,-1.5471 0.47552,-2.7838 0,-1.2409 -0.16106,-2.1725 -0.47552,-2.7881 -0.31776,-0.6209 -0.78907,-0.9315 -1.4255,-0.9315 m 0,-0.9662 c 1.01495,0 1.78449,0.4021 2.32079,1.2001 0.53129,0.8019 0.80155,1.9623 0.80155,3.4857 0,1.5182 -0.27026,2.6787 -0.80155,3.4768 -0.5363,0.8018 -1.30584,1.2008 -2.32079,1.2008 -1.00778,0 -1.78137,-0.399 -2.31674,-1.2008 -0.53223,-0.7981 -0.79827,-1.9586 -0.79827,-3.4768 0,-1.5234 0.26604,-2.6838 0.79827,-3.4857 0.53537,-0.798 1.30896,-1.2001 2.31674,-1.2001"
         style="fill:#000000;fill-opacity:1;fill-rule:nonzero;stroke:none"
         id="path5632"
         inkscape:connector-curvature="0" />
      <path
         d="m 724.68366,946.44547 0,2.5622 3.05009,0 0,1.1564 -3.05009,0 0,4.8994 c 0,0.7334 0.10112,1.209 0.29812,1.4184 0.20113,0.2103 0.61269,0.3146 1.23262,0.3146 l 1.51935,0 0,1.2367 -1.51935,0 c -1.14391,0 -1.93402,-0.2095 -2.36829,-0.6363 -0.43527,-0.4271 -0.65292,-1.2092 -0.65292,-2.3334 l 0,-4.8994 -1.0882,0 0,-1.1564 1.0882,0 0,-2.5622 1.49047,0 z"
         style="fill:#000000;fill-opacity:1;fill-rule:nonzero;stroke:none"
         id="path5634"
         inkscape:connector-curvature="0" />
      <path
         d="m 423.73406,926.80837 4.12591,0"
         style="fill:none;stroke:#000000;stroke-width:0.51573801;stroke-linecap:butt;stroke-linejoin:round;stroke-miterlimit:100000;stroke-dasharray:none;stroke-opacity:1"
         id="path5636"
         inkscape:connector-curvature="0" />
      <path
         d="m 1026.0561,926.80837 -4.1259,0"
         style="fill:none;stroke:#000000;stroke-width:0.51573801;stroke-linecap:butt;stroke-linejoin:round;stroke-miterlimit:100000;stroke-dasharray:none;stroke-opacity:1"
         id="path5638"
         inkscape:connector-curvature="0" />
      <path
         d="m 423.73406,880.82307 4.12591,0"
         style="fill:none;stroke:#000000;stroke-width:0.51573801;stroke-linecap:butt;stroke-linejoin:round;stroke-miterlimit:100000;stroke-dasharray:none;stroke-opacity:1"
         id="path5646"
         inkscape:connector-curvature="0" />
      <path
         d="m 1026.0561,880.82307 -4.1259,0"
         style="fill:none;stroke:#000000;stroke-width:0.51573801;stroke-linecap:butt;stroke-linejoin:round;stroke-miterlimit:100000;stroke-dasharray:none;stroke-opacity:1"
         id="path5648"
         inkscape:connector-curvature="0" />
      <path
         d="m 423.73406,834.84187 4.12591,0"
         style="fill:none;stroke:#000000;stroke-width:0.51573801;stroke-linecap:butt;stroke-linejoin:round;stroke-miterlimit:100000;stroke-dasharray:none;stroke-opacity:1"
         id="path5656"
         inkscape:connector-curvature="0" />
      <path
         d="m 1026.0561,834.84187 -4.1259,0"
         style="fill:none;stroke:#000000;stroke-width:0.51573801;stroke-linecap:butt;stroke-linejoin:round;stroke-miterlimit:100000;stroke-dasharray:none;stroke-opacity:1"
         id="path5658"
         inkscape:connector-curvature="0" />
      <path
         d="m 423.73406,788.85967 4.12591,0"
         style="fill:none;stroke:#000000;stroke-width:0.51573801;stroke-linecap:butt;stroke-linejoin:round;stroke-miterlimit:100000;stroke-dasharray:none;stroke-opacity:1"
         id="path5666"
         inkscape:connector-curvature="0" />
      <path
         d="m 1026.0561,788.85967 -4.1259,0"
         style="fill:none;stroke:#000000;stroke-width:0.51573801;stroke-linecap:butt;stroke-linejoin:round;stroke-miterlimit:100000;stroke-dasharray:none;stroke-opacity:1"
         id="path5668"
         inkscape:connector-curvature="0" />
      <path
         d="m 423.73406,742.87853 4.12591,0"
         style="fill:none;stroke:#000000;stroke-width:0.51573801;stroke-linecap:butt;stroke-linejoin:round;stroke-miterlimit:100000;stroke-dasharray:none;stroke-opacity:1"
         id="path5676"
         inkscape:connector-curvature="0" />
      <path
         d="m 1026.0561,742.87853 -4.1259,0"
         style="fill:none;stroke:#000000;stroke-width:0.51573801;stroke-linecap:butt;stroke-linejoin:round;stroke-miterlimit:100000;stroke-dasharray:none;stroke-opacity:1"
         id="path5678"
         inkscape:connector-curvature="0" />
      <path
         d="m 423.73406,696.89326 4.12591,0"
         style="fill:none;stroke:#000000;stroke-width:0.51573801;stroke-linecap:butt;stroke-linejoin:round;stroke-miterlimit:100000;stroke-dasharray:none;stroke-opacity:1"
         id="path5686"
         inkscape:connector-curvature="0" />
      <path
         d="m 1026.0561,696.89326 -4.1259,0"
         style="fill:none;stroke:#000000;stroke-width:0.51573801;stroke-linecap:butt;stroke-linejoin:round;stroke-miterlimit:100000;stroke-dasharray:none;stroke-opacity:1"
         id="path5688"
         inkscape:connector-curvature="0" />
      <path
         d="m 380.63816,848.38297 4.52077,0 0,-2.0463 c 0,-0.7572 -0.19383,-1.3461 -0.58786,-1.7567 -0.39081,-0.4146 -0.95131,-0.621 -1.67612,-0.621 -0.71803,0 -1.27409,0.2064 -1.66812,0.621 -0.39083,0.4106 -0.58867,0.9995 -0.58867,1.7567 l 0,2.0463 z m -1.33812,1.6287 0,-3.675 c 0,-1.3503 0.30666,-2.3693 0.91502,-3.0584 0.61289,-0.6932 1.50698,-1.0397 2.67989,-1.0397 1.18814,0 2.08667,0.3465 2.69513,1.0397 0.60433,0.6891 0.90657,1.7081 0.90657,3.0584 l 0,2.0463 4.83462,0 0,1.6287 -12.03123,0 z"
         style="fill:#000000;fill-opacity:1;fill-rule:nonzero;stroke:none"
         id="path5696"
         inkscape:connector-curvature="0" />
      <path
         d="m 383.69227,834.89337 c -0.0971,0.1693 -0.16518,0.3508 -0.20949,0.5446 -0.0484,0.197 -0.0723,0.4147 -0.0723,0.6488 0,0.8376 0.27314,1.4823 0.81785,1.9299 0.54761,0.4507 1.32968,0.6766 2.34868,0.6766 l 4.75407,0 0,1.4865 -9.02543,0 0,-1.4865 1.40697,0 c -0.54878,-0.3145 -0.95526,-0.7209 -1.22118,-1.2211 -0.26632,-0.4993 -0.3993,-1.1079 -0.3993,-1.8206 0,-0.1016 0.004,-0.2136 0.0206,-0.3383 0.0125,-0.1258 0.0322,-0.2621 0.06,-0.4116 l 1.51935,-0.011 z"
         style="fill:#000000;fill-opacity:1;fill-rule:nonzero;stroke:none"
         id="path5698"
         inkscape:connector-curvature="0" />
      <path
         d="m 383.34579,829.84946 c 0,0.79323 0.31028,1.42248 0.93111,1.88551 0.62013,0.4591 1.46987,0.6932 2.55012,0.6932 1.07986,0 1.92959,-0.2301 2.55041,-0.689 0.62015,-0.46007 0.93082,-1.09231 0.93082,-1.88971 0,-0.79012 -0.31067,-1.4183 -0.93082,-1.87834 -0.62485,-0.46314 -1.47459,-0.69207 -2.55041,-0.69207 -1.06779,0 -1.91347,0.22893 -2.54279,0.69207 -0.62415,0.46004 -0.93844,1.08822 -0.93844,1.87834 m -1.25344,0 c 0,-1.28931 0.41979,-2.30533 1.25749,-3.03871 0.83847,-0.73646 1.99886,-1.1078 3.47718,-1.1078 1.47915,0 2.63954,0.37134 3.48123,1.1078 0.8385,0.73338 1.26108,1.7494 1.26108,3.03871 0,1.29347 -0.42258,2.30841 -1.26108,3.04191 -0.84169,0.7333 -2.00208,1.0995 -3.48123,1.0995 -1.47832,0 -2.63871,-0.3662 -3.47718,-1.0995 -0.8377,-0.7335 -1.25749,-1.74844 -1.25749,-3.04191"
         style="fill:#000000;fill-opacity:1;fill-rule:nonzero;stroke:none"
         id="path5700"
         inkscape:connector-curvature="0" />
      <path
         d="m 386.82702,816.76624 c -1.08831,0 -1.94247,0.22588 -2.56258,0.67251 -0.62086,0.45178 -0.93114,1.06862 -0.93114,1.84945 0,0.78597 0.31028,1.40279 0.93114,1.85355 0.62011,0.44766 1.47427,0.67355 2.56258,0.67355 1.09234,0 1.94609,-0.22589 2.56621,-0.67355 0.62084,-0.45076 0.93112,-1.06758 0.93112,-1.85355 0,-0.78083 -0.31028,-1.39767 -0.93112,-1.84945 -0.62012,-0.44663 -1.47387,-0.67251 -2.56621,-0.67251 m -3.15126,5.04906 c -0.53544,-0.31459 -0.93471,-0.70964 -1.19259,-1.18103 -0.2619,-0.47965 -0.39082,-1.04694 -0.39082,-1.704 0,-1.10058 0.43508,-1.99074 1.30584,-2.67152 0.86625,-0.68902 2.01055,-1.03146 3.42883,-1.03146 1.41829,0 2.56621,0.34244 3.43647,1.03146 0.87075,0.68078 1.30584,1.57094 1.30584,2.67152 0,0.65706 -0.13294,1.22435 -0.39483,1.704 -0.25788,0.47139 -0.65716,0.86644 -1.19662,1.18103 l 1.35339,0 0,1.49049 -12.53851,0 0,-1.49049 4.883,0 z"
         style="fill:#000000;fill-opacity:1;fill-rule:nonzero;stroke:none"
         id="path5702"
         inkscape:connector-curvature="0" />
      <path
         d="m 386.79876,808.66812 c 0,1.20064 0.13747,2.02995 0.40662,2.49412 0.27436,0.45899 0.74173,0.69211 1.40692,0.69211 0.52307,0 0.94287,-0.17335 1.25233,-0.51883 0.30623,-0.35069 0.45972,-0.82209 0.45972,-1.4152 0,-0.82517 -0.28964,-1.48222 -0.87429,-1.98144 -0.5799,-0.49615 -1.35752,-0.74577 -2.32082,-0.74577 l -0.33048,0 0,1.47501 z m -0.61641,-2.95828 5.14892,0 0,1.48327 -1.36546,0 c 0.5443,0.33832 0.95081,0.76123 1.20869,1.26873 0.26188,0.50439 0.39483,1.12017 0.39483,1.85355 0,0.92317 -0.26188,1.65656 -0.78164,2.20425 -0.51575,0.54361 -1.21311,0.81797 -2.08265,0.81797 -1.01178,0 -1.77734,-0.33831 -2.29307,-1.0191 -0.51575,-0.6818 -0.77364,-1.69677 -0.77364,-3.04285 l 0,-2.08255 -0.1495,0 c -0.68044,0 -1.20877,0.22588 -1.583,0.67252 -0.3703,0.45178 -0.56009,1.07995 -0.56009,1.88965 0,0.51575 0.0649,1.02013 0.18535,1.51113 0.12498,0.48789 0.31058,0.95926 0.56,1.40589 l -1.37392,0 c -0.20909,-0.53945 -0.36701,-1.06757 -0.46694,-1.57506 -0.10529,-0.51161 -0.15787,-1.00776 -0.15787,-1.49047 0,-1.30998 0.33842,-2.28473 1.01611,-2.92939 0.67654,-0.64468 1.69998,-0.96754 3.0739,-0.96754"
         style="fill:#000000;fill-opacity:1;fill-rule:nonzero;stroke:none"
         id="path5704"
         inkscape:connector-curvature="0" />
      <path
         d="m 386.82702,796.17695 c -1.08831,0 -1.94247,0.22588 -2.56258,0.67355 -0.62086,0.45075 -0.93114,1.06758 -0.93114,1.84943 0,0.78495 0.31028,1.40178 0.93114,1.85252 0.62011,0.44768 1.47427,0.67358 2.56258,0.67358 1.09234,0 1.94609,-0.2259 2.56621,-0.67358 0.62084,-0.45074 0.93112,-1.06757 0.93112,-1.85252 0,-0.78185 -0.31028,-1.39868 -0.93112,-1.84943 -0.62012,-0.44767 -1.47387,-0.67355 -2.56621,-0.67355 m -3.15126,5.04908 c -0.53544,-0.31461 -0.93471,-0.70967 -1.19259,-1.18105 -0.2619,-0.47962 -0.39082,-1.04696 -0.39082,-1.70399 0,-1.10059 0.43508,-1.99077 1.30584,-2.67154 0.86625,-0.68901 2.01055,-1.03147 3.42883,-1.03147 1.41829,0 2.56621,0.34246 3.43647,1.03147 0.87075,0.68077 1.30584,1.57095 1.30584,2.67154 0,0.65703 -0.13294,1.22437 -0.39483,1.70399 -0.25788,0.47138 -0.65716,0.86644 -1.19662,1.18105 l 1.35339,0 0,1.49048 -12.53851,0 0,-1.49048 4.883,0 z"
         style="fill:#000000;fill-opacity:1;fill-rule:nonzero;stroke:none"
         id="path5706"
         inkscape:connector-curvature="0" />
      <path
         d="m 382.30587,792.18411 0,-1.48223 9.0254,0 0,1.48223 -9.0254,0 z m -3.51311,0 0,-1.48223 1.8813,0 0,1.48223 -1.8813,0 z"
         style="fill:#000000;fill-opacity:1;fill-rule:nonzero;stroke:none"
         id="path5708"
         inkscape:connector-curvature="0" />
      <path
         d="m 378.79276,787.59918 12.53851,0 0,-1.48354 -12.53851,0 0,1.48354 z"
         style="fill:#000000;fill-opacity:1;fill-rule:nonzero;stroke:none"
         id="path5710"
         inkscape:connector-curvature="0" />
      <path
         d="m 382.30587,783.01326 0,-1.48223 9.0254,0 0,1.48223 -9.0254,0 z m -3.51311,0 0,-1.48223 1.8813,0 0,1.48223 -1.8813,0 z"
         style="fill:#000000;fill-opacity:1;fill-rule:nonzero;stroke:none"
         id="path5712"
         inkscape:connector-curvature="0" />
      <path
         d="m 379.74368,776.95745 2.56219,0 0,-3.05007 1.15639,0 0,3.05007 4.89951,0 c 0.73326,0 1.20877,-0.0961 1.41827,-0.2981 0.21031,-0.20115 0.3147,-0.61166 0.3147,-1.23262 l 0,-1.51935 1.23653,0 0,1.51935 c 0,1.14392 -0.20949,1.93816 -0.63621,2.36932 -0.42713,0.43527 -1.20918,0.65291 -2.33329,0.65291 l -4.89951,0 0,1.08718 -1.15639,0 0,-1.08718 -2.56219,0 0,-1.49151 z"
         style="fill:#000000;fill-opacity:1;fill-rule:nonzero;stroke:none"
         id="path5714"
         inkscape:connector-curvature="0" />
      <path
         d="m 392.16975,768.20229 c 1.07573,0.41466 1.77726,0.82621 2.10319,1.22538 0.33008,0.39403 0.49118,0.92628 0.49118,1.59158 l 0,1.18825 -1.24095,0 0,-0.87468 c 0,-0.40641 -0.0961,-0.721 -0.28974,-0.9469 -0.19299,-0.22487 -0.64913,-0.47962 -1.36992,-0.74885 l -0.67252,-0.26612 -8.88512,3.64627 0,-1.56682 7.05952,-2.82521 -7.05952,-2.82004 0,-1.572 9.86388,3.96914 z"
         style="fill:#000000;fill-opacity:1;fill-rule:nonzero;stroke:none"
         id="path5716"
         inkscape:connector-curvature="0" />
    </g>
    <g
       id="g732016"
       transform="matrix(0.42309676,0.14253125,-0.14253125,0.42309676,742.09095,588.90968)"
       inkscape:export-filename="/home/mafontai/Dropbox/presentation 27.01.2021/figures/GSM.png"
       inkscape:export-xdpi="288"
       inkscape:export-ydpi="288">
      <path
         sodipodi:nodetypes="cc"
         style="fill:#000000;fill-opacity:1;fill-rule:evenodd;stroke:#000000;stroke-width:7.88171;stroke-linecap:butt;stroke-linejoin:miter;stroke-miterlimit:4;stroke-dasharray:none;stroke-opacity:1"
         d="M 179.78382,438.10094 321.67236,124.22663"
         id="path732012"
         inkscape:connector-curvature="0" />
      <path
         inkscape:transform-center-x="-3.5800631"
         sodipodi:type="star"
         style="opacity:1;fill:#000000;fill-opacity:1;fill-rule:nonzero;stroke:#000000;stroke-width:2.16941;stroke-linecap:butt;stroke-linejoin:miter;stroke-miterlimit:4;stroke-dasharray:none;stroke-dashoffset:0;stroke-opacity:1"
         id="path732014"
         sodipodi:sides="3"
         sodipodi:cx="-207.87834"
         sodipodi:cy="-231.33595"
         sodipodi:r1="28.34927"
         sodipodi:r2="14.174634"
         sodipodi:arg1="1.5707963"
         sodipodi:arg2="2.6179939"
         inkscape:flatsided="true"
         inkscape:rounded="0"
         inkscape:randomized="0"
         d="m -207.87834,-202.98668 -24.55119,-42.52391 49.10238,0 z"
         inkscape:transform-center-y="-4.1090611"
         transform="rotate(-164.77913,80.410734,-90.394063)" />
    </g>
    <g
       transform="matrix(1.378458,0,0,1.378458,-246.66247,-14.267105)"
       id="g5683"
       inkscape:export-filename="/home/mafontai/Dropbox/presentation 27.01.2021/figures/GSM.png"
       inkscape:export-xdpi="288"
       inkscape:export-ydpi="288">
      <g
         style="font-style:normal;font-variant:normal;font-weight:normal;font-stretch:normal;letter-spacing:normal;word-spacing:normal;text-anchor:start;fill:none;fill-opacity:1;fill-rule:evenodd;stroke:#000000;stroke-linecap:butt;stroke-linejoin:miter;stroke-miterlimit:10.43299961;stroke-dasharray:none;stroke-dashoffset:0;stroke-opacity:1"
         id="g5685"
         transform="matrix(0.75421822,0,0,-0.75421822,-131.98819,789.27165)"
         xml:space="preserve"
         stroke-miterlimit="10.433"
         font-style="normal"
         font-variant="normal"
         font-weight="normal"
         font-stretch="normal"
         font-size-adjust="none"
         letter-spacing="normal"
         word-spacing="normal"><g
           inkscape:label=""
           transform="matrix(5.0285308,0,0,-5.2842171,-4.7972849,831.86477)"
           id="g1363"><g
   id="g7332">
    <g
   style="fill:#000000;fill-opacity:1"
   id="g378">
      <use
   xlink:href="#symbol7355"
   x="91.925003"
   y="81.962997"
   id="use3098"
   width="100%"
   height="100%" />
    </g>
    <g
   style="fill:#000000;fill-opacity:1"
   id="g9161">
      <use
   xlink:href="#symbol3387"
   x="101.477"
   y="81.962997"
   id="use9055"
   width="100%"
   height="100%" />
    </g>
    <g
   style="fill:#000000;fill-opacity:1"
   id="g7291">
      <use
   xlink:href="#symbol4507"
   x="111.99551"
   y="81.962997"
   id="use3154"
   width="100%"
   height="100%" />
    </g>
    <g
   style="fill:#000000;fill-opacity:1"
   id="g8083">
      <use
   xlink:href="#symbol9861"
   x="118.51006"
   y="81.962997"
   id="use3442"
   width="100%"
   height="100%" />
    </g>
    <g
   style="fill:#000000;fill-opacity:1"
   id="g490">
      <use
   xlink:href="#symbol8862"
   x="125.2906"
   y="81.962997"
   id="use7384"
   width="100%"
   height="100%" />
    </g>
    <g
   style="fill:#000000;fill-opacity:1"
   id="g6358">
      <use
   xlink:href="#symbol491"
   x="138.91499"
   y="81.962997"
   id="use7167"
   width="100%"
   height="100%" />
    </g>
    <g
   style="fill:#000000;fill-opacity:1"
   id="g3959">
      <use
   xlink:href="#symbol2465"
   x="142.78999"
   y="81.962997"
   id="use1247"
   width="100%"
   height="100%" />
    </g>
    <g
   style="fill:#000000;fill-opacity:1"
   id="g8180">
      <use
   xlink:href="#symbol9707"
   x="148.51801"
   y="81.962997"
   id="use1063"
   width="100%"
   height="100%" />
    </g>
    <g
   style="fill:#000000;fill-opacity:1"
   id="g4175">
      <use
   xlink:href="#symbol987"
   x="152.946"
   y="81.962997"
   id="use6877"
   width="100%"
   height="100%" />
    </g>
    <g
   style="fill:#000000;fill-opacity:1"
   id="g3106">
      <use
   xlink:href="#symbol5068"
   x="161.608"
   y="81.962997"
   id="use3933"
   width="100%"
   height="100%" />
    </g>
  </g>
</g></g>
    </g>
    <g
       id="g6058"
       transform="translate(361.42857,162.85714)"
       inkscape:export-filename="/home/mafontai/Dropbox/presentation 27.01.2021/figures/GSM.png"
       inkscape:export-xdpi="288"
       inkscape:export-ydpi="288">
      <g
         word-spacing="normal"
         letter-spacing="normal"
         font-size-adjust="none"
         font-stretch="normal"
         font-weight="normal"
         font-variant="normal"
         font-style="normal"
         stroke-miterlimit="10.433"
         xml:space="preserve"
         transform="matrix(0.75421822,0,0,-0.75421822,-131.98819,789.27165)"
         id="content"
         style="font-style:normal;font-variant:normal;font-weight:normal;font-stretch:normal;letter-spacing:normal;word-spacing:normal;text-anchor:start;fill:none;fill-opacity:1;fill-rule:evenodd;stroke:#000000;stroke-linecap:butt;stroke-linejoin:miter;stroke-miterlimit:10.43299961;stroke-dasharray:none;stroke-dashoffset:0;stroke-opacity:1"><path
           id="path6061"
           d="m 499.57878,422.62413 0.0551,0.1792 0.0413,0.19298 0.0551,0.20677 0.0414,0.19298 0.0551,0.20677 0.0551,0.22056 0.11027,0.42732 0.11028,0.45489 0.11028,0.4411 0.11027,0.44111 0.0414,0.22055 0.0551,0.20677 0.0551,0.20678 0.0414,0.20676 0.0413,0.19298 0.0414,0.19299 0.0414,0.19298 0.0414,0.16542 0.0414,0.16542 0.0276,0.1654 0.0413,0.15164 0.0138,0.12406 0.0276,0.12406 0.0276,0.12406 0.0137,0.0965 0.0137,0.0827 0,0.069 0,0.0551 c 0,1.43359 -1.08899,3.01881 -3.22559,3.01881 -1.10277,0 -3.63913,-0.6203 -4.53514,-3.63912 -0.27568,-0.96492 -3.36343,-13.39861 -3.91482,-15.65929 -0.41353,-1.58522 -0.88221,-3.57021 -1.02005,-4.81082 -1.24061,-1.64036 -3.91482,-4.4662 -7.42989,-4.4662 -4.03888,0 -4.1078,3.44615 -4.1078,5.01758 0,4.19052 2.12282,9.55272 4.05266,14.4876 0.67545,1.792 0.88221,2.26067 0.88221,3.43236 0,3.98375 -3.96996,6.18928 -7.76072,6.18928 -7.26447,0 -10.71062,-9.34595 -10.71062,-10.71062 0,-0.96492 1.03385,-0.96492 1.65416,-0.96492 0.82708,0 1.29575,0 1.57144,0.89599 2.27445,7.60909 5.98251,8.29832 7.08528,8.29832 0.46867,0 1.15789,0 1.15789,-1.43359 0,-1.58523 -0.81329,-3.50128 -1.08897,-4.32836 -2.89477,-7.20934 -4.19052,-11.05523 -4.19052,-14.41867 0,-7.82965 6.86472,-8.93241 10.91739,-8.93241 1.98498,0 5.0038,0.27569 8.71186,3.77698 2.20552,-3.36345 6.18928,-3.77698 7.82964,-3.77698 2.53636,0 4.53512,1.44738 5.98251,3.91482 1.70928,2.74313 2.60528,6.45119 2.60528,6.7958 0,0.96492 -1.03384,0.96492 -1.64037,0.96492 -0.77193,0 -1.03383,0 -1.37845,-0.34462 -0.13785,-0.13784 -0.13785,-0.27569 -0.55139,-1.98498 -1.37845,-5.36219 -2.88097,-6.8785 -4.67296,-6.8785 -1.03385,0 -1.57145,0.68923 -1.57145,2.55015 0,1.17168 0.26191,2.26067 0.95114,5.01758 0.48246,1.91606 1.17169,4.6592 1.5163,6.1755 z"
           inkscape:connector-curvature="0"
           style="fill:#000000;stroke-width:0" /><path
           id="path6063"
           d="m 517.33331,449.89002 0,0.22056 0,0.23434 0,0.23434 -0.0137,0.11027 0,0.11028 -0.0137,0.0965 -0.0137,0.11026 -0.0138,0.11028 -0.0137,0.0965 -0.0137,0.0965 -0.0276,0.0965 -0.0276,0.0965 -0.0276,0.0827 -0.0413,0.0827 -0.0414,0.0827 -0.0414,0.0827 -0.0413,0.069 -0.0551,0.069 -0.0551,0.0551 -0.069,0.069 -0.069,0.0551 -0.069,0.0414 -0.0413,0.0276 -0.0414,0.0138 -0.0414,0.0138 -0.0551,0.0276 -0.0414,0.0137 -0.0551,0.0138 -0.0414,0.0137 -0.0551,0.0137 -0.0551,0 -0.0551,0.0137 -0.0551,0 -0.0551,0.0137 -0.069,0 -0.0551,0 c -1.37847,0 -1.37847,-1.24061 -1.37847,-2.46744 l 0,-63.72611 c 0,-1.22682 0,-2.46744 1.37847,-2.46744 1.36467,0 1.36467,1.24062 1.36467,2.46744 z"
           inkscape:connector-curvature="0"
           style="fill:#000000;stroke-width:0" /><path
           id="path6065"
           d="m 555.72337,446.87121 0,0 0,0.0137 0,0 0,0.0137 0,0.0137 0,0 0,0.0138 0.0137,0.0137 0,0.0276 0,0.0276 0.0137,0.0276 0,0.0414 0.0137,0.0276 0,0.0414 0.0138,0.0414 0.0137,0.0414 0,0.0276 0.0137,0.0414 0.0137,0.0827 0.0276,0.0827 0,0.0413 0.0137,0.0414 0.0137,0.0276 0,0.0414 0.0138,0.0276 0,0.0413 0.0137,0.0276 0,0.0276 0.0137,0.0138 0,0 0,0.0137 0,0.0137 0,0.0137 0,0 0.0137,0.0137 0,0.0138 0,0 0,0 0,0.0137 0,0 c 0,0.069 0,0.68924 -0.82707,0.68924 -0.68923,0 -0.75815,-0.20678 -1.03385,-1.37847 l -3.98374,-15.85226 c -10.91738,-0.34462 -21.0077,-9.48379 -21.0077,-18.81596 0,-6.5201 4.81082,-11.95123 13.17806,-12.43368 l 0.34461,1.5163 c -4.1078,0.20676 -9.05646,2.60528 -9.05646,9.47001 0,8.24318 5.89979,17.85103 16.14175,18.74702 l -7.08529,-28.21703 -0.34461,-1.5163 c -0.55138,-2.12284 -1.02006,-4.31458 -1.57144,-6.45119 -0.82708,-3.22559 -1.5163,-5.84467 -1.5163,-6.03765 0,-0.68923 0.48246,-0.75815 0.82707,-0.75815 0.34462,0 0.48246,0.069 0.68923,0.27569 0.13785,0.13785 0.55138,1.77821 0.75816,2.74314 l 2.60528,10.22816 0.34461,1.5163 7.07149,28.21703 c 5.22436,-0.27569 9.12539,-3.43236 9.12539,-9.47001 0,-8.10532 -5.8998,-17.91995 -16.19688,-18.74702 l -0.34461,-1.5163 c 11.05523,0.34461 21.00769,9.62163 21.00769,18.81594 0,5.41735 -3.63912,11.74447 -13.17805,12.4337 z"
           inkscape:connector-curvature="0"
           style="fill:#ff0000;stroke-width:0.66293811;fill-opacity:1;stroke:#ff0000;stroke-opacity:1;stroke-miterlimit:10.43299961;stroke-dasharray:none" /><path
           id="path6067"
           d="m 635.94963,423.79582 -0.0138,0.13784 0,0.13785 0,0.12406 -0.0137,0.12406 -0.0137,0.12406 -0.0137,0.11028 -0.0138,0.11028 -0.0137,0.11027 -0.0137,0.0965 -0.0276,0.0965 -0.0138,0.0965 -0.0276,0.0827 -0.0276,0.0827 -0.0276,0.0827 -0.0276,0.069 -0.0276,0.069 -0.0414,0.069 -0.0276,0.069 -0.0414,0.0551 -0.0414,0.0551 -0.0276,0.0413 -0.0414,0.0414 -0.0414,0.0414 -0.0413,0.0414 -0.0551,0.0276 -0.0414,0.0276 -0.0414,0.0138 -0.0551,0.0276 -0.0413,0.0137 -0.0551,0 -0.0414,0.0138 -0.0551,0 c -0.34461,0 -0.89599,-0.48246 -0.96491,-1.77821 -0.2757,-6.58904 -4.81083,-10.37979 -9.60786,-10.37979 -4.32836,0 -7.62287,2.9499 -11.00009,5.91359 -3.4875,3.15667 -7.0577,6.31333 -11.73068,6.31333 -7.48502,0 -11.5377,-7.55394 -11.5377,-13.79836 0,-2.19175 0.89601,-2.19175 0.96493,-2.19175 0.74437,0 0.95113,1.36468 0.95113,1.57144 0.2757,7.55395 5.43113,10.57277 9.62164,10.57277 4.32836,0 7.62287,-2.94989 10.98632,-5.8998 3.50127,-3.15667 7.07148,-6.32712 11.74445,-6.32712 7.48503,0 11.5377,7.56773 11.5377,13.81215 z"
           inkscape:connector-curvature="0"
           style="fill:#000000;stroke-width:0" /><path
           id="path6069"
           d="m 679.05401,440.26839 0.23434,-0.68923 0.24812,-0.71679 0.24812,-0.77194 0.27569,-0.81329 0.2757,-0.86843 0.15162,-0.44111 0.15164,-0.46868 0.15162,-0.46867 0.15164,-0.49624 0.16541,-0.49625 0.1792,-0.52382 0.16542,-0.52381 0.1792,-0.55138 0.19298,-0.55139 0.19298,-0.57894 0.19299,-0.59275 0.20676,-0.60652 0.22056,-0.62031 0.22056,-0.63408 0.22055,-0.66167 0.23434,-0.67543 0.24812,-0.68924 0.24812,-0.70301 0.26191,-0.73059 0.2619,-0.74436 0.2757,-0.75815 0.28947,-0.78573 c 4.31457,-11.67553 6.24441,-15.93497 10.43493,-22.45508 0.96492,-1.44737 1.03384,-1.5163 1.64036,-1.5163 0.96493,0 2.4123,0.82708 3.15667,1.37846 0.96493,0.896 1.03385,0.96492 1.792,4.32836 4.12158,18.0578 9.33216,36.87376 10.71062,40.03042 0.069,0.13785 1.44738,2.74313 9.88354,2.88098 1.37846,0.069 2.688,3.70805 2.688,5.22435 0,1.10277 -0.41354,1.10277 -1.37847,1.10277 -6.86471,0 -9.95246,-2.89477 -10.77954,-3.77698 -1.92984,-2.48122 -3.5702,-7.48503 -6.72687,-18.9538 -2.4123,-8.79455 -4.60405,-17.71318 -6.72688,-26.57666 -3.77697,5.69303 -5.91358,11.12415 -9.2081,19.98764 -3.63913,9.74569 -5.83087,16.8861 -7.69179,23.0616 -0.39976,1.37846 -0.48246,1.44738 -1.08899,1.44738 -0.15162,0 -1.5163,0 -3.50128,-1.65415 -0.68922,-0.6203 -0.75815,-1.22683 -0.82708,-1.98498 -1.92984,-18.26457 -8.38102,-36.32237 -10.22815,-39.63066 -0.55138,-1.02007 -1.37846,-2.26068 -2.75692,-2.26068 -0.68923,0 -3.36343,0.34462 -5.14165,1.99876 -0.34461,0.26192 -0.48246,0.26192 -0.55138,0.26192 -1.10277,0 -2.55015,-3.41859 -2.55015,-5.07273 0,-2.13662 4.19052,-3.50129 6.12036,-3.50129 4.39728,0 7.89856,9.67678 9.00133,12.83345 4.45242,12.43369 6.58903,22.66185 7.88478,30.00903 z"
           inkscape:connector-curvature="0"
           style="fill:#000000;stroke-width:0" /><path
           id="path6071"
           d="m 735.61214,409.62527 -0.15163,-0.0414 -0.15163,-0.0276 -0.15163,-0.0414 -0.13784,-0.0551 -0.13785,-0.0551 -0.13785,-0.0551 -0.12406,-0.0551 -0.11027,-0.069 -0.12406,-0.069 -0.11028,-0.0827 -0.0965,-0.069 -0.0965,-0.0827 -0.0965,-0.0965 -0.0827,-0.0827 -0.0827,-0.0965 -0.0827,-0.0827 -0.069,-0.0965 -0.069,-0.0965 -0.0551,-0.11028 -0.0551,-0.0965 -0.0551,-0.0965 -0.0551,-0.11027 -0.0414,-0.0965 -0.0276,-0.11028 -0.0414,-0.11027 -0.0276,-0.0965 -0.0276,-0.11028 -0.0137,-0.0965 -0.0138,-0.11028 -0.0137,-0.0965 0,-0.11028 0,-0.0965 c 0,-1.29576 1.00627,-1.77821 1.86092,-1.77821 1.06141,0 2.74313,0.77193 2.74313,3.07396 0,3.26695 -3.7494,4.19051 -6.34091,4.19051 -7.20933,0 -13.89485,-6.63038 -13.89485,-13.3159 0,-4.13538 2.88098,-8.36724 8.89105,-8.36724 8.11912,0 11.92367,4.75568 11.92367,5.43112 0,0.28947 -0.42733,0.81329 -0.81329,0.81329 -0.28948,0 -0.38598,-0.0965 -0.77194,-0.46868 -3.7494,-4.42484 -9.37352,-4.42484 -10.24194,-4.42484 -3.45994,0 -5.00381,2.35716 -5.00381,5.33463 0,1.39224 0.67545,6.63038 3.17045,9.93868 1.83336,2.37094 4.34215,3.70805 6.74066,3.70805 0.67545,0 2.97747,-0.0965 4.17674,-1.43359 z"
           inkscape:connector-curvature="0"
           style="fill:#000000;stroke-width:0" /><path
           id="path6073"
           d="m 777.26915,384.37192 0,0.0414 0,0.0413 -0.0137,0.0138 0,0.0276 0,0.0137 -0.0137,0.0276 0,0.0276 -0.0137,0.0137 -0.0137,0.0276 -0.0137,0.0276 -0.0137,0.0414 -0.0137,0.0276 -0.0275,0.0276 -0.0275,0.0414 -0.0275,0.0413 -0.0275,0.0414 -0.0412,0.0414 -0.0412,0.0551 -0.0137,0.0276 -0.0275,0.0276 -0.0275,0.0276 -0.0275,0.0276 -0.0275,0.0276 -0.0275,0.0414 -0.0275,0.0276 -0.0275,0.0276 -0.0275,0.0414 -0.0412,0.0276 -0.0275,0.0414 -0.0412,0.0413 -0.0275,0.0414 -0.0412,0.0414 -0.0412,0.0414 -0.0412,0.0413 -0.0412,0.0414 -0.0412,0.0414 -0.0549,0.0551 -0.0412,0.0413 -0.0549,0.0551 -0.0412,0.0414 -0.0549,0.0551 -0.0549,0.0551 c -8.58778,8.65672 -10.7795,21.62801 -10.7795,32.13185 0,11.95124 2.61902,23.90247 11.05524,32.49026 0.896,0.81329 0.896,0.95113 0.896,1.15791 0,0.48246 -0.27575,0.68922 -0.68922,0.68922 -0.68921,0 -6.86474,-4.67296 -10.91742,-13.39861 -3.50128,-7.54017 -4.32831,-15.16304 -4.32831,-20.93878 0,-5.34841 0.75807,-13.66051 4.5351,-21.42123 4.12153,-8.43616 10.02142,-12.90237 10.71063,-12.90237 0.41347,0 0.68922,0.20677 0.68922,0.67544 z"
           inkscape:connector-curvature="0"
           style="fill:#000000;stroke-width:0" /><path
           id="path6081"
           d="m 804.97853,420.34488 v 1.03384 l -0.0137,1.02006 -0.0275,1.03384 -0.0412,1.02006 -0.0687,1.03385 -0.0824,1.02005 -0.0961,1.02006 -0.13783,1.00628 -0.15165,1.00627 -0.19295,1.00628 -0.22052,0.99249 -0.26191,0.99249 -0.30331,0.9787 -0.33077,0.9787 -0.386,0.96493 -0.20679,0.48245 -0.22051,0.48246 c -3.15668,6.58903 -8.78083,7.6918 -11.6756,7.6918 -4.1078,0 -9.12533,-1.792 -11.95123,-8.17426 -2.19173,-4.74189 -2.53633,-10.0903 -2.53633,-15.59035 0,-5.15544 0.27564,-11.33093 3.08772,-16.55529 2.96372,-5.55519 7.96752,-6.93364 11.33098,-6.93364 v 1.51631 c -2.67425,0 -6.72692,1.72306 -7.96752,8.3121 -0.74434,4.12158 -0.74434,10.43492 -0.74434,14.48759 0,4.39728 0,8.91862 0.55139,12.62668 1.29572,8.17425 6.45118,8.79456 8.16047,8.79456 2.27442,0 6.80952,-1.24061 8.10525,-8.03641 0.68931,-3.8459 0.68931,-9.05647 0.68931,-13.38483 0,-5.15543 0,-9.8284 -0.75817,-14.2119 -1.03382,-6.52011 -4.93494,-8.58779 -8.03639,-8.58779 v 0 -1.51631 c 3.70797,0 8.93238,1.44738 11.95124,7.96749 2.19172,4.74189 2.53633,10.09031 2.53633,15.52144 z"
           inkscape:connector-curvature="0"
           style="fill:#000000;stroke-width:0" /><path
           id="path6083"
           d="m 821.79575,398.44118 v 0.42732 l -0.0137,0.39975 -0.0275,0.39976 -0.0275,0.38597 -0.0549,0.37218 -0.0412,0.3584 -0.0687,0.35839 -0.0687,0.33084 -0.0824,0.33083 -0.0961,0.31704 -0.0961,0.30326 -0.0961,0.28948 -0.12409,0.27569 -0.12399,0.2619 -0.12409,0.24813 -0.13783,0.24812 -0.15165,0.22056 -0.15165,0.20676 -0.16539,0.20678 -0.16549,0.17919 -0.17912,0.1792 -0.17922,0.15163 -0.19295,0.13785 -0.20678,0.13784 -0.20678,0.11028 -0.20679,0.0965 -0.22051,0.0827 -0.22062,0.069 -0.23434,0.0551 -0.23435,0.0414 -0.23425,0.0276 h -0.24818 c -2.27442,0 -3.65294,-1.70929 -3.65294,-3.63913 0,-1.84714 1.37852,-3.63913 3.65294,-3.63913 0.8133,0 1.7093,0.2757 2.39851,0.896 0.20678,0.13785 0.27574,0.20677 0.3446,0.20677 0.0687,0 0.13792,-0.069 0.13792,-1.03384 0,-5.08651 -2.41234,-9.19432 -4.67302,-11.46877 -0.75817,-0.75816 -0.75817,-0.896 -0.75817,-1.10277 0,-0.46868 0.3446,-0.74437 0.68921,-0.74437 0.75817,0 6.2445,5.2795 6.2445,13.31591 z"
           inkscape:connector-curvature="0"
           style="fill:#000000;stroke-width:0" /><path
           id="path6087"
           d="m 923.82928,445.19848 -0.027,0.16541 -0.028,0.13785 -0.028,0.15162 -0.027,0.12406 -0.028,0.12407 -0.028,0.12406 -0.041,0.11028 -0.028,0.0965 -0.041,0.0965 -0.041,0.0965 -0.041,0.0827 -0.055,0.0827 -0.041,0.069 -0.055,0.069 -0.055,0.0551 -0.069,0.0551 -0.055,0.0551 -0.069,0.0413 -0.082,0.0414 -0.069,0.0414 -0.082,0.0276 -0.096,0.0276 -0.096,0.0276 -0.096,0.0276 -0.1103,0.0138 -0.1103,0.0137 -0.124,0.0137 -0.124,0.0138 h -0.138 l -0.1378,0.0137 h -0.1516 -0.1516 c -1.51632,0 -2.06772,-0.27569 -3.03272,-1.72308 l -26.98118,-41.27109 c -0.82714,-1.29576 -1.65417,-2.53637 -6.65797,-2.60529 -0.96495,0 -2.20555,0 -2.20555,-1.98498 0,-0.55138 0.48243,-1.24061 1.30956,-1.24061 h 14.14296 c 0.48243,0 1.84712,0 1.84712,1.99876 0,1.22683 -1.22677,1.22683 -1.77816,1.22683 -0.55139,0 -2.46747,0 -3.98381,0.75815 l 6.31336,9.60785 h 18.54027 l -0.4824,3.22559 h -15.92128 l 12.90236,19.78088 3.01892,-19.78088 0.4824,-3.22559 1.58532,-10.02139 c -1.30962,-0.27569 -3.43244,-0.34461 -4.46624,-0.34461 -1.37845,0 -2.53636,0 -2.53636,-1.98498 0,-0.896 0.74434,-1.24061 1.50251,-1.24061 2.27445,0 7.96751,0.20676 10.24201,0.20676 1.5714,0 3.15672,-0.069 4.72802,-0.069 1.58532,0 3.22574,-0.13784 4.81094,-0.13784 0.62032,0 1.91612,0 1.91612,1.99876 0,1.22683 -1.0201,1.22683 -2.74312,1.22683 -0.965,0 -1.72322,0 -2.67432,0.069 -0.827,0.069 -0.896,0.13785 -1.10282,1.30954 z"
           inkscape:connector-curvature="0"
           style="fill:#000000;stroke-width:0" /><path
           id="path6089"
           d="m 958.66316,415.53405 -0.014,0.51004 v 0.53759 l -0.014,0.5376 -0.014,0.56517 -0.055,1.15791 -0.082,1.21304 -0.1239,1.26818 -0.138,1.29575 -0.1929,1.35089 -0.2205,1.37846 -0.27582,1.40602 -0.317,1.4336 -0.3722,1.44738 -0.4136,1.46116 -0.4824,1.46117 -0.5375,1.47496 -0.30332,0.73058 -0.3033,0.74437 -0.3308,0.73057 -0.3446,0.73059 c -4.12174,8.43616 -10.02158,12.90236 -10.71078,12.90236 -0.4135,0 -0.68922,-0.27568 -0.68922,-0.68922 0,-0.20677 0,-0.34461 1.29572,-1.58522 6.74076,-6.78202 10.65568,-17.71319 10.65568,-32.06295 0,-11.74446 -2.55022,-23.81975 -11.05538,-32.47646 -0.89602,-0.82708 -0.89602,-0.95114 -0.89602,-1.17169 0,-0.39976 0.27572,-0.67545 0.68922,-0.67545 0.6892,0 6.86486,4.65919 10.91748,13.38483 3.50134,7.55395 4.32844,15.17682 4.32844,20.93877 z"
           inkscape:connector-curvature="0"
           style="fill:#000000;stroke-width:0" /><path
           id="path6065-4"
           d="m 870.83738,449.63833 v 0 0.0137 0 0.0137 0.0137 0 0.0138 l 0.0137,0.0137 v 0.0276 0.0276 l 0.0137,0.0276 v 0.0414 l 0.0137,0.0276 v 0.0414 l 0.0138,0.0414 0.0137,0.0414 v 0.0276 l 0.0137,0.0414 0.0137,0.0827 0.0276,0.0827 v 0.0413 l 0.0137,0.0414 0.0137,0.0276 v 0.0414 l 0.0138,0.0276 v 0.0413 l 0.0137,0.0276 v 0.0276 l 0.0137,0.0138 v 0 0.0137 0.0137 0.0137 0 l 0.0137,0.0137 v 0.0138 0 0 0.0137 0 c 0,0.069 0,0.68924 -0.82707,0.68924 -0.68923,0 -0.75815,-0.20678 -1.03385,-1.37847 l -3.98371,-15.85227 c -10.91738,-0.34462 -21.0077,-9.48379 -21.0077,-18.81596 0,-6.5201 4.81082,-11.95123 13.17806,-12.43368 l 0.34461,1.5163 c -4.1078,0.20676 -9.05646,2.60528 -9.05646,9.47001 0,8.24318 5.89979,17.85103 16.14175,18.74702 l -7.08529,-28.21703 -0.34461,-1.5163 c -0.55138,-2.12284 -1.02006,-4.31458 -1.57144,-6.45119 -0.82708,-3.22559 -1.5163,-5.84467 -1.5163,-6.03765 0,-0.68923 0.48246,-0.75815 0.82707,-0.75815 0.34462,0 0.48246,0.069 0.68923,0.27569 0.13785,0.13785 0.55138,1.77821 0.75816,2.74314 l 2.60528,10.22816 0.34461,1.5163 7.07149,28.21703 c 5.22436,-0.27569 9.12539,-3.43236 9.12539,-9.47001 0,-8.10532 -5.8998,-17.91995 -16.19688,-18.74702 l -0.34461,-1.5163 c 11.05523,0.34461 21.00769,9.62163 21.00769,18.81594 0,5.41735 -3.63912,11.74447 -13.17805,12.4337 z"
           inkscape:connector-curvature="0"
           style="font-style:normal;font-variant:normal;font-weight:normal;font-stretch:normal;letter-spacing:normal;word-spacing:normal;text-anchor:start;fill:#ff0000;fill-opacity:1;fill-rule:evenodd;stroke:#ff0000;stroke-width:0.662938;stroke-linecap:butt;stroke-linejoin:miter;stroke-miterlimit:10.433;stroke-dasharray:none;stroke-dashoffset:0;stroke-opacity:1" /></g>
    </g>
    <g
       inkscape:label=""
       transform="matrix(4.9794821,0,0,4.9794821,-64.877076,385.63411)"
       id="g1151"
       inkscape:transform-center-x="-4.7389984"
       inkscape:transform-center-y="-1.1888776"
       inkscape:export-filename="/home/mafontai/Dropbox/presentation 27.01.2021/figures/GSM.png"
       inkscape:export-xdpi="288"
       inkscape:export-ydpi="288">
      <g
         id="g4378">
        <g
           style="fill:#000000;fill-opacity:1"
           id="g4586">
          <use
             xlink:href="#symbol6463"
             x="91.925003"
             y="81.962997"
             id="use8003"
             width="100%"
             height="100%" />
          <use
             xlink:href="#symbol4231"
             x="95.854248"
             y="81.962997"
             id="use2010"
             width="100%"
             height="100%" />
          <use
             xlink:href="#symbol2514"
             x="101.38947"
             y="81.962997"
             id="use9621"
             width="100%"
             height="100%" />
          <use
             xlink:href="#symbol2514"
             x="106.92469"
             y="81.962997"
             id="use9609"
             width="100%"
             height="100%" />
        </g>
        <g
           style="fill:#000000;fill-opacity:1"
           id="g9342">
          <use
             xlink:href="#symbol4340"
             x="114.12366"
             y="81.962997"
             id="use4059"
             width="100%"
             height="100%" />
        </g>
        <g
           style="fill:#ff0000;fill-opacity:1"
           id="g4544">
          <use
             xlink:href="#symbol7697"
             x="117.994"
             y="81.962997"
             id="use4530"
             width="100%"
             height="100%"
             style="fill:#ff0000;fill-opacity:1" />
        </g>
        <g
           style="fill:#000000;fill-opacity:1"
           id="g3714">
          <use
             xlink:href="#symbol4658"
             x="123.93"
             y="81.962997"
             id="use2668"
             width="100%"
             height="100%" />
        </g>
        <g
           style="fill:#000000;fill-opacity:1"
           id="g8039">
          <use
             xlink:href="#symbol1472"
             x="130.57201"
             y="81.962997"
             id="use7253"
             width="100%"
             height="100%" />
        </g>
        <g
           style="fill:#000000;fill-opacity:1"
           id="g8320">
          <use
             xlink:href="#symbol95"
             x="141.088"
             y="81.962997"
             id="use2077"
             width="100%"
             height="100%" />
        </g>
        <g
           style="fill:#000000;fill-opacity:1"
           id="g1803">
          <use
             xlink:href="#symbol1275"
             x="148.283"
             y="83.457001"
             id="use4401"
             width="100%"
             height="100%" />
        </g>
      </g>
    </g>
  </g>
</svg>
